<svg width="259" height="204" viewBox="0 0 259 204" fill="none" xmlns="http://www.w3.org/2000/svg">
<path fill-rule="evenodd" clip-rule="evenodd" d="M150.18 56.9389L150.938 54.6655L177.081 61.4123C181.376 60.8053 190.873 58.2272 194.511 52.7711C194.988 51.7723 195.469 50.2958 195.672 48.6032C196.06 45.3732 195.438 41.3565 191.858 38.373L183.144 31.9318C182.512 31.174 181.173 29.0522 180.87 26.6273C180.567 24.2024 179.986 19.0494 179.734 16.776C178.976 12.7344 175.035 5.40914 165.336 8.4403C163.82 9.19808 159.425 11.9261 153.969 16.776C152.832 13.7448 150.028 6.84897 147.906 3.51469C145.633 0.862422 139.268 -2.85075 131.993 3.51469L125.552 12.2293C125.552 13.2397 124.263 15.3362 119.11 15.6393C116.206 15.2604 109.486 15.1089 105.849 17.5338C103.323 18.9231 98.8016 23.5961 100.923 31.174C101.555 33.0685 104.637 38.2973 111.911 44.0565L137.297 50.8766V53.15L102.818 62.2435C101.05 62.875 98.2711 65.0473 101.302 68.6847C105.091 73.2314 106.986 73.9892 108.501 80.4305C109.714 85.5834 113.553 82.8301 115.321 80.8094L138.434 57.6967L126.765 89.9028L122.647 101.27L100.544 162.272L117.216 166.44L127.067 169.166L138.172 106.195L140.377 93.6918L146.391 59.5912L155.863 93.6918C158.591 97.0261 161.041 95.0811 161.926 93.6918C164.35 90.3575 170.766 88.2609 173.671 87.6295C177.006 86.1139 176.324 83.4616 175.566 82.3249L150.18 56.9389ZM173.671 51.6344H150.938C150.938 51.1224 150.825 50.6127 150.635 50.1188C149.927 48.2733 148.145 46.6484 147.149 45.951C153.211 32.6139 161.041 24.4802 164.199 22.0806C166.927 19.6556 167.104 21.828 166.851 23.2172C165.281 32.8619 170.53 39.5053 175.566 43.1781C177.336 44.4688 179.079 45.3927 180.491 45.951C182.31 47.1634 181.754 48.2243 181.249 48.6032C179.127 50.7251 175.313 51.5081 173.671 51.6344ZM144.875 22.8384C144.875 28.1429 144.623 38.752 144.496 45.5721C141.465 45.269 139.192 47.4666 138.434 48.6032C126.612 44.0565 117.09 33.8263 113.806 29.2796C131.614 29.6585 137.297 20.565 140.707 14.1238C143.739 16.8518 144.749 21.0702 144.875 22.8384Z" fill="#F55F5F"/>
<path d="M137.297 50.8766L111.911 44.0565L92.2088 38.752C86.4496 36.9333 83.4942 40.7727 82.7364 42.9198L73.6429 76.2626L80.463 78.536L126.765 89.9028L138.434 57.6967L115.321 80.8094C113.553 82.8301 109.714 85.5834 108.501 80.4305C106.986 73.9892 105.091 73.2314 101.302 68.6847C98.2711 65.0473 101.05 62.875 102.818 62.2435L137.297 53.15V50.8766Z" fill="#1B1F3B"/>
<path d="M186.933 106.195L192.995 108.09L202.088 75.5048C202.341 73.1051 201.861 68.0027 197.921 66.7902L190.722 64.9324L180.491 62.2923L177.081 61.4123L150.938 54.6655L150.18 56.9389L175.566 82.3249C176.324 83.4616 177.006 86.1139 173.671 87.6295C170.766 88.2609 164.35 90.3575 161.926 93.6918C161.041 95.0811 158.591 97.0261 155.863 93.6918L146.391 59.5912L140.377 93.6918L186.933 106.195Z" fill="#1B1F3B"/>
<path d="M159.652 178.185C161.547 178.691 165.79 178.867 167.609 175.533L177.957 138.401L183.554 118.32L138.172 106.195L127.067 169.166L159.652 178.185Z" fill="#1B1F3B"/>
<path d="M63.0338 142.19C60.6089 149.768 65.5598 152.926 68.3384 153.557L74.4007 155.198L94.8611 160.734L100.544 162.272L122.647 101.27L77.4313 89.9028C72.2499 109.267 65.0234 135.973 63.0338 142.19Z" fill="#1B1F3B"/>
<path d="M186.933 106.195L140.377 93.6918L138.172 106.195L183.554 118.32L186.933 106.195Z" fill="#111425"/>
<path d="M126.765 89.9028L80.463 78.536L80.0601 80.0516C79.4513 82.3398 78.7701 84.8946 78.0393 87.6295C77.8402 88.3745 77.6374 89.1329 77.4313 89.9028L122.647 101.27L126.765 89.9028Z" fill="#111324"/>
<path d="M41.8157 52.7711L44.8469 64.5169C23.2498 70.9581 0.74343 74.3681 0.137197 100.133C-0.0738348 102.032 -0.0611783 104.381 0.314636 106.953C5.00334 122.715 19.8551 128.171 26.6949 128.929C25.7176 124.978 25.6044 124.932 22.1436 111.879C16.4087 90.2487 28.1754 90.6606 49.7725 84.9772L51.2881 89.9028L53.3548 97.4808L69.4751 68.9619L41.8157 52.7711Z" fill="white"/>
<path d="M230.506 85.735L236.947 108.09C238.968 112.131 240.508 120.821 230.506 123.246C229.998 123.369 229.493 123.491 228.99 123.614C219.573 125.908 211.009 128.09 207.772 128.929L204.362 116.804L194.702 134.234L188.823 144.843L215.918 160.377L214.213 154.315L212.698 148.253C243.009 139.538 252.842 138.932 258.071 110.742C255.976 101.4 248.394 86.5606 230.506 85.735Z" fill="white"/>
<path d="M186.933 148.253L217.623 166.44L215.918 160.377L188.823 144.843L186.933 148.253Z" fill="#242424"/>
<path d="M214.213 154.315L235.052 148.253C243.641 145.853 260.363 135.522 258.544 113.394C258.439 112.58 258.283 111.689 258.071 110.742C252.842 138.932 243.009 139.538 212.698 148.253L214.213 154.315Z" fill="#242424"/>
<path d="M29.3121 95.9652L51.2881 89.9028L49.7725 84.9772C28.1754 90.6606 16.4087 90.2487 22.1436 111.879C21.5476 104.303 23.0912 97.6813 29.3121 95.9652Z" fill="#242424"/>
<path d="M53.3548 97.4808L54.6981 102.406L64.7777 84.9772L72.8851 70.9581L69.4751 68.9619L53.3548 97.4808Z" fill="#242424"/>
<path d="M27.7966 133.476C27.3032 131.42 26.9658 130.024 26.6949 128.929C19.8551 128.171 5.00334 122.715 0.314636 106.953C1.73816 116.695 8.37221 129.639 27.7966 133.476Z" fill="#242424"/>
<path d="M192.995 108.09L186.933 106.195L183.554 118.32L177.957 138.401L194.702 134.234L204.362 116.804L207.772 128.929C211.009 128.09 219.573 125.908 228.99 123.614L208.151 45.951L195.672 48.6032C195.469 50.2958 194.988 51.7723 194.511 52.7711C190.873 58.2272 181.376 60.8053 177.081 61.4123L180.491 62.2923L205.12 55.4234L206.635 60.7279L190.722 64.9324L197.921 66.7902C201.861 68.0027 202.341 73.1051 202.088 75.5048L192.995 108.09Z" fill="#313869"/>
<path d="M68.3384 153.557C65.5598 152.926 60.6089 149.768 63.0338 142.19C65.0234 135.973 72.2499 109.267 77.4313 89.9028C77.6374 89.1329 77.8402 88.3745 78.0393 87.6295C78.7701 84.8946 79.4513 82.3398 80.0601 80.0516L64.7777 84.9772L54.6981 102.406L53.3548 97.4808L51.2881 89.9028L29.3121 95.9652L50.5303 172.881L94.8611 160.734L74.4007 155.198L75.1585 157.725L53.5614 163.787L52.0459 158.483L68.3384 153.557Z" fill="#313869"/>
<path d="M80 200C106.5 206 157 204.5 178.5 200C154 195.5 108 194.5 80 200Z" fill="#242424" fill-opacity="0.3"/>
<path d="M27.7966 133.476L42.5735 186.521L52.0459 183.869M60.7605 181.595L63.0338 180.838M71.3695 178.564L73.6429 177.807M82.7364 175.533L116.837 166.44M230.506 85.356L216.108 32.6896L207.014 34.9629M197.921 37.2363L195.647 37.9941M174.808 43.2986L150.938 50.1188" stroke="#323869"/>
</svg>
