<svg width="19" height="26" viewBox="0 0 19 26" fill="none" xmlns="http://www.w3.org/2000/svg">
<path d="M9.5 0C4.52429 0 0.5 4.02429 0.5 9C0.5 11.2371 1.14286 13.3329 2.31286 15.2229C3.53429 17.2029 5.14143 18.9 6.37571 20.88C6.98 21.8443 7.41714 22.7443 7.88 23.7857C8.21429 24.4929 8.48429 25.7143 9.5 25.7143C10.5157 25.7143 10.7857 24.4929 11.1071 23.7857C11.5829 22.7443 12.0071 21.8443 12.6114 20.88C13.8457 18.9129 15.4529 17.2157 16.6743 15.2229C17.8571 13.3329 18.5 11.2371 18.5 9C18.5 4.02429 14.4757 0 9.5 0ZM9.5 12.5357C7.72571 12.5357 6.28571 11.0957 6.28571 9.32143C6.28571 7.54714 7.72571 6.10714 9.5 6.10714C11.2743 6.10714 12.7143 7.54714 12.7143 9.32143C12.7143 11.0957 11.2743 12.5357 9.5 12.5357Z" fill="#C9D137"/>
</svg>
