<svg width="79" height="106" viewBox="0 0 79 106" fill="none" xmlns="http://www.w3.org/2000/svg">
<path d="M39.4551 1C41.3691 0.999999 43.2018 1.09616 44.9554 1.28202M39.4551 1V78.5M39.4551 1C37.604 1 35.83 1.09637 34.131 1.28202M11.955 70.5C12.955 74 13.955 74.5 15.955 70.5C17.955 66.5 19.4002 69.6681 19.955 70.5C20.9161 71.941 21.4154 73.8435 22.7827 77.9807M11.955 70.5C11.155 67.7 10.955 65.3333 10.955 64.5M11.955 70.5C20.6105 50.1 17.4554 60.5 22.3689 60.5M10.955 64.5L7.45504 60.5L5.95504 64.5C2.35422 58.1554 0.458656 48.6941 1.13567 39M10.955 64.5C9.90255 58.9 7.51677 45.1667 6.45544 39M1.13567 39H6.45544M1.13567 39C1.60081 32.3397 3.28031 25.5694 6.45544 19.6247M78.1628 39C78.8519 49.0877 77.0161 59.5215 73.455 68C73.2883 65.1667 70.4555 60.5 67.4555 65.5C63.0822 72.7887 62.9555 72 57.9551 102.5C57.1217 104.333 55.9554 106.5 54.4551 102.5L53.2573 93.5167M78.1628 39C77.0985 23.42 70.0114 8.6656 53.9554 3.21537M78.1628 39H73.455M39.4551 93.5167C40.4051 93.1291 41.2126 91.9704 41.4551 91C42.9554 84.9937 42.2551 86.5 45.4551 78.5C48.6551 70.5 50.7884 76.1667 51.4551 80L53.2573 93.5167M39.4551 93.5167C38.4471 93.9279 37.2787 93.4711 36.4551 91C34.8551 86.2 33.455 80.6667 32.955 78.5C32.3781 76 29.855 74.5 27.455 78.5C24.455 83.5 24.5119 83.1719 22.955 78.5C22.8961 78.3231 22.8387 78.15 22.7827 77.9807M39.4551 93.5167V78.5M44.9554 1.28202C50.2888 5.02135 60.5554 17.8 58.9554 39M44.9554 1.28202C48.2254 1.62858 51.2205 2.28699 53.9554 3.21537M58.9554 39H73.455M58.9554 39C58.9737 48.4132 58.6786 62.8467 57.7144 74.5M58.9554 39H19.955M53.2573 93.5167C54.0914 93.3753 54.8109 92.1003 55.4298 90M53.9554 3.21537C55.0478 3.86998 56.3096 4.74936 57.6556 5.84171M73.455 39C73.6118 43.5422 72.8561 53.5009 68.7808 59M73.455 39C73.7717 31.555 71.8511 25.0368 68.9912 19.6247M56.3332 86C62.711 85 61.9554 66.5 67.9554 60C68.2446 59.6867 68.5195 59.3525 68.7808 59M56.3332 86C56.8996 82.8275 57.3538 78.8582 57.7144 74.5M56.3332 86C56.0591 87.5354 55.7587 88.8842 55.4298 90M68.7808 59C66.1783 57 60.3216 57.3 57.7144 74.5M39.4551 78.5C42.9553 64 50.7558 43.7 53.9554 78.5C54.1458 82 54.7072 89.2 55.4298 90M39.4551 78.5C36.9552 66.4944 30.5554 47.5866 24.9554 68L24.7377 69M22.7827 77.9807L24.7377 69M24.7377 69C24.1009 67.269 23.2097 64.3039 22.3689 60.5M19.955 39C20.0722 29.5213 23.0714 8.70764 34.131 1.28202M19.955 39H6.45544M19.955 39C19.955 47.1672 21.1049 54.7815 22.3689 60.5M34.131 1.28202C30.952 1.62938 28.0356 2.2893 25.3676 3.21537M25.3676 3.21537C16.4758 6.3017 10.344 12.3442 6.45544 19.6247M25.3676 3.21537C24.4691 3.92756 23.4528 4.80944 22.3689 5.84171M6.45544 39C5.76401 25.1657 15.445 12.4356 22.3689 5.84171M6.45544 19.6247H68.9912M68.9912 19.6247C65.7838 13.555 61.395 8.87645 57.6556 5.84171M22.3689 5.84171H57.6556" stroke="#C9D137"/>
</svg>
