<svg width="312" height="358" viewBox="0 0 312 358" fill="none" xmlns="http://www.w3.org/2000/svg">
<path d="M300 85.7644L248.25 17.0006L1.00006 17L0.999997 305.426L54.7625 357.5L300 357.5L300 85.7644Z" fill="#1B1F3B"/>
<path d="M300 85.7644L248.25 17.0006L1.00006 17L0.999997 305.426L54.7625 357.5L300 357.5L300 85.7644Z" fill="#1B1F3B"/>
<path d="M300 85.7644L248.25 17.0006L1.00006 17L0.999997 305.426L54.7625 357.5L300 357.5L300 85.7644Z" stroke="#C9D137"/>
<path d="M311 58.5L259.334 1.00056L12.4816 0.999908L12.4816 292.5L66.1575 343.5L311 343.5L311 58.5Z" fill="#1B1F3B"/>
<path d="M311 58.5L259.334 1.00056L12.4816 0.999908L12.4816 292.5L66.1575 343.5L311 343.5L311 58.5Z" fill="#1B1F3B"/>
<path d="M311 58.5L259.334 1.00056L12.4816 0.999908L12.4816 292.5L66.1575 343.5L311 343.5L311 58.5Z" stroke="#C9D137"/>
</svg>
