<svg width="542" height="493" viewBox="0 0 542 493" fill="none" xmlns="http://www.w3.org/2000/svg">
<path d="M521 111L431 21L1.00015 20.9992L1.00003 398.5L94.5 492L521 492L521 111Z" fill="#1B1F3B"/>
<path d="M521 111L431 21L1.00015 20.9992L1.00003 398.5L94.5 492L521 492L521 111Z" fill="#1B1F3B"/>
<path d="M521 111L431 21L1.00015 20.9992L1.00003 398.5L94.5 492L521 492L521 111Z" stroke="#C9D137"/>
<path d="M541 91L451 1.00001L21.0001 0.999237L21 378.5L114.5 472L541 472L541 91Z" fill="#1B1F3B"/>
<path d="M541 91L451 1.00001L21.0001 0.999237L21 378.5L114.5 472L541 472L541 91Z" fill="#1B1F3B"/>
<path d="M541 91L451 1.00001L21.0001 0.999237L21 378.5L114.5 472L541 472L541 91Z" stroke="#C9D137"/>
</svg>
