<svg width="13" height="69" viewBox="0 0 13 69" fill="none" xmlns="http://www.w3.org/2000/svg">
<g opacity="0.8">
<rect width="5" height="5" transform="matrix(1 0 0 -1 0 69)" fill="white"/>
<rect width="5" height="5" transform="matrix(1 0 0 -1 8 69)" fill="#C9D137"/>
<rect opacity="0.6" width="5" height="5" transform="matrix(1 0 0 -1 0 21)" fill="white"/>
<rect width="5" height="5" transform="matrix(1 0 0 -1 0 45)" fill="white"/>
<rect width="5" height="5" transform="matrix(1 0 0 -1 8 45)" fill="#C9D137"/>
<rect width="5" height="5" transform="matrix(1 0 0 -1 0 61)" fill="white"/>
<rect width="5" height="5" transform="matrix(1 0 0 -1 8 61)" fill="#C9D137"/>
<rect opacity="0.3" width="5" height="5" transform="matrix(1 0 0 -1 0 13)" fill="white"/>
<rect width="5" height="5" transform="matrix(1 0 0 -1 0 37)" fill="white"/>
<rect width="5" height="5" transform="matrix(1 0 0 -1 8 37)" fill="#C9D137"/>
<rect width="5" height="5" transform="matrix(1 0 0 -1 0 53)" fill="white"/>
<rect width="5" height="5" transform="matrix(1 0 0 -1 8 53)" fill="#C9D137"/>
<rect opacity="0.1" width="5" height="5" transform="matrix(1 0 0 -1 0 5)" fill="white"/>
<rect opacity="0.8" width="5" height="5" transform="matrix(1 0 0 -1 0 29)" fill="white"/>
</g>
</svg>
