<svg width="1440" height="1009" viewBox="0 0 1440 1009" fill="none" xmlns="http://www.w3.org/2000/svg">
<g opacity="0.3">
<path d="M1474.04 134.135L1474.04 206.753L1477.34 210.054L1477.34 217.756L1436.63 258.467L1360.71 258.467L1349.7 269.47L1349.7 280.472L1336.5 293.676L1336.5 304.679L1338.7 304.679L1362.91 280.472L1436.63 280.472L1492.74 224.358L1492.74 146.238L1480.64 134.135L1474.04 134.135Z" fill="#C9D137"/>
<path d="M1499.34 82.4212L1527.95 111.029L1527.95 116.53L1522.45 116.53L1493.84 87.9226L1493.84 82.4212L1499.34 82.4212Z" fill="#C9D137"/>
<path d="M1503.74 328.885L1475.14 357.492L1475.14 364.094L1481.74 364.094L1510.35 335.487L1510.35 328.885L1503.74 328.885Z" fill="#C9D137"/>
<path d="M970.106 182.547L976.708 182.547L1004.22 210.054L1004.22 216.656L998.714 216.656L970.106 188.048L970.106 182.547Z" fill="#C9D137"/>
<path d="M878.783 234.26L878.783 251.865L935.997 309.08L944.8 309.08L960.204 324.484L960.204 315.681L878.783 234.26Z" fill="#C9D137"/>
<path d="M893.086 345.389L899.688 345.389L927.195 372.896L927.195 379.498L921.694 379.498L893.086 350.891L893.086 345.389Z" fill="#C9D137"/>
<path d="M1269.38 222.157L1275.99 222.157L1302.39 195.75L1302.39 189.149L1295.79 189.149L1269.38 215.556L1269.38 222.157Z" fill="#C9D137"/>
<path d="M1414.62 1.00011L1414.62 68.1175L1432.23 85.722L1476.24 85.722L1527.95 137.435L1527.95 234.26L1582.96 234.26L1619.27 270.57M1435.53 108.828L1469.64 108.828L1503.74 141.837L1503.74 228.759L1442.13 290.375L1367.31 290.375L1193.46 464.22L1175.86 464.22L1175.86 445.515L1113.14 382.799L1113.14 366.295L1196.76 282.673L1268.28 282.673L1335.4 215.556L1335.4 178.146L1404.72 108.828L1420.12 108.828M1435.53 108.828L1435.53 126.433L1388.21 173.745L1388.21 206.753L1238.58 356.392M1435.53 108.828L1420.12 108.828M1238.58 356.392L1257.28 375.097L1257.28 388.3L1244.08 388.3L1186.86 331.085L1186.86 317.882L1200.07 317.882C1200.07 317.882 1206.5 324.227 1214.51 332.186M1238.58 356.392C1232.3 349.937 1222.6 340.236 1214.51 332.186M1214.51 332.186L1224.27 322.42L1257.28 322.42L1373.91 205.79L1373.91 166.043L1420.12 119.831L1420.12 108.828M1459.73 136.335L1459.73 149.539M1453.13 136.335L1453.13 149.539M1453.13 156.14L1453.13 162.742M1459.73 156.14L1459.73 162.742M1459.73 169.344L1459.73 175.945M1453.13 169.344L1453.13 175.945M1595.07 317.882L1600.57 317.882L1620.37 298.077L1620.37 291.475M1620.37 291.475C1617.07 291.475 1613.77 289.275 1613.77 285.974C1613.77 282.673 1617.07 280.472 1620.37 280.472C1623.68 280.472 1626.98 282.673 1626.98 285.974C1626.98 289.275 1623.68 291.475 1620.37 291.475ZM1549.96 256.266L1501.54 256.266L1445.43 312.381L1372.81 312.381L1264.98 420.208L1328.8 420.208L1367.31 381.699L1382.71 381.699M1549.96 256.266L1569.76 256.266L1588.47 274.971L1588.47 290.375L1497.14 381.699L1402.52 381.699M1549.96 256.266L1563.16 269.47L1563.16 291.475L1486.14 368.495L1415.72 368.495L1402.52 381.699M1402.52 381.699L1382.71 381.699M1382.71 381.699L1382.71 390.501L1354.11 419.108L1354.11 436.713L1372.81 455.418L1575.26 455.418L1646.78 383.899L1646.78 368.495M1397.02 1.00011L1397.02 92.3237L1316.7 172.644L1316.7 201.252L1248.48 269.47L1187.96 269.47L1094.44 362.994L1074.63 362.994L1059.23 347.59L1059.23 287.074L959.103 186.948L959.103 1.00009L1063.63 1.0001L1192.36 129.733L1193.46 130.834L1193.46 163.842L1255.08 225.458L1255.08 241.962L1244.08 252.965L1184.66 252.965L1085.64 351.991M1222.07 1.0001L1247.38 26.3066L1260.58 26.3066L1348.6 114.329L1348.6 125.332L1335.4 125.332L1211.07 1.0001M1189.06 1.0001L1214.37 26.3066L1227.57 26.3066L1315.6 114.329L1315.6 124.232L1301.29 124.232L1178.06 1.0001M1156.05 1.0001L1181.36 26.3066L1194.56 26.3066L1282.59 114.329L1282.59 124.232L1268.28 124.232L1145.05 1.0001M1123.05 1.0001L1148.35 26.3066L1161.56 26.3066L1249.58 114.329L1249.58 124.232L1235.27 124.232L1112.04 1.0001M1090.04 1.0001L1115.34 26.3066L1128.55 26.3066L1216.57 114.329L1216.57 124.232L1202.27 124.232L1079.03 1.0001M1116.44 101.126L1116.44 116.53M1116.44 120.931L1116.44 129.733M1116.44 134.135L1116.44 140.736M1109.84 134.135L1109.84 140.736M1109.84 129.733L1109.84 120.931M1109.84 116.53L1109.84 101.126M1061.43 107.728L1061.43 36.2092L1068.03 36.2092L1076.83 45.0115L1076.83 58.2149L1085.64 67.0172L1098.84 67.0172L1171.46 139.636L1171.46 185.848M1061.43 107.728L1061.43 122.031L1145.05 205.653L1160.46 205.653L1171.46 194.65L1171.46 185.848M1061.43 107.728L1125.25 171.544L1146.15 171.544L1160.46 185.848L1171.46 185.848M1046.03 25.2064L1046.03 128.633L1153.85 236.461M1153.85 236.461L1158.25 236.461L1158.25 240.862L1153.85 240.862L1153.85 236.461ZM1137.35 236.461L1030.62 129.733L1030.62 25.2064M1137.35 236.461L1140.65 236.461L1140.65 240.862L1136.25 240.862L1136.25 236.461L1137.35 236.461ZM1014.12 25.2064L1014.12 129.733L1120.85 236.461M1120.85 236.461L1125.25 236.461L1125.25 240.862L1120.85 240.862L1120.85 236.461ZM1105.44 236.461L997.613 128.633L997.613 25.2064M1105.44 236.461L1109.84 236.461L1109.84 240.862L1105.44 240.862L1105.44 236.461ZM1090.04 236.461L982.209 128.633L982.209 25.2064M1090.04 236.461L1094.44 236.461L1094.44 240.862L1090.04 240.862L1090.04 236.461ZM864.479 23.0058L864.479 43.9112L931.596 111.029L931.596 122.031M854.576 31.8081L854.576 51.6132L922.794 119.831L922.794 130.834M845.774 40.6103L845.774 60.4154L913.992 128.633L913.992 140.736M836.972 49.4126L836.972 70.318L905.189 138.536L905.189 149.538M894.187 158.341L894.187 146.238L827.069 79.1203L827.069 60.4154M817.167 70.318L817.167 89.0228L885.384 157.24L885.384 168.243M876.582 177.046L876.582 166.043L808.364 97.8251L808.364 78.02M954.702 227.659L918.393 227.659L993.212 302.478L993.212 349.79L1092.79 449.366M954.702 227.659L977.808 227.659L1043.83 293.676L1043.83 350.891L1066.93 373.997L1084.54 373.997L1159.36 448.816L1159.36 464.22L1134.05 489.526L1101.04 489.526L1101.04 457.618L1092.79 449.366M954.702 227.659L1035.02 307.979L1035.02 361.893L1107.64 434.512L1092.79 449.366M1395.92 489.526L1160.46 489.526L1171.46 478.524L1206.67 478.524L1247.38 437.813L1326.6 437.813L1359.61 470.822L1597.27 470.822L1615.97 489.526L1549.96 489.526M1214.37 177.046L1219.87 177.046L1238.58 158.341L1238.58 150.639M1238.58 150.639C1241.88 150.639 1244.08 148.658 1244.08 145.137C1244.08 141.616 1241.88 139.636 1238.58 139.636C1235.27 139.636 1233.07 141.837 1233.07 145.137C1233.07 148.438 1235.27 150.639 1238.58 150.639ZM1069.13 343.189L1074.63 343.189L1093.34 324.484L1093.34 316.782M1093.34 316.782C1096.64 316.782 1098.84 314.801 1098.84 311.28C1098.84 307.759 1096.64 305.779 1093.34 305.779C1090.04 305.779 1087.84 307.979 1087.84 311.28C1087.84 314.581 1090.04 316.782 1093.34 316.782ZM1499.34 82.4212L1527.95 111.029L1527.95 116.53L1522.45 116.53L1493.84 87.9226L1493.84 82.4212L1499.34 82.4212ZM1571.96 146.238L1541.15 146.238L1541.15 150.639L1554.36 150.639L1554.36 157.241L1541.15 157.241L1541.15 161.642L1571.96 161.642L1571.96 157.241L1558.76 157.241L1558.76 150.639L1571.96 150.639L1571.96 146.238ZM1565.36 170.444L1565.36 174.845L1571.96 175.945L1571.96 180.346L1541.15 174.845L1541.15 169.344L1571.96 164.943L1571.96 169.344L1565.36 170.444ZM1560.96 194.65L1566.46 194.65C1566.83 194.65 1567.56 194.43 1567.56 193.55C1567.56 192.67 1567.56 190.249 1567.56 189.149C1567.56 188.782 1567.34 188.048 1566.46 188.048C1565.58 188.048 1552.89 188.048 1546.66 188.048C1546.29 188.048 1545.55 188.269 1545.55 189.149C1545.55 190.029 1545.55 191.716 1545.55 192.45L1545.55 193.55C1545.55 193.917 1545.77 194.65 1546.66 194.65C1547.54 194.65 1548.49 194.65 1548.86 194.65C1549.22 194.65 1549.96 194.87 1549.96 195.75C1549.96 196.631 1549.96 196.851 1549.96 196.851C1549.96 197.218 1549.74 197.951 1548.86 197.951C1547.98 197.951 1545.55 197.951 1544.45 197.951C1540.05 197.951 1537.85 183.647 1546.66 183.647C1548.86 183.647 1562.06 183.647 1567.56 183.647C1573.06 183.647 1573.06 197.951 1567.56 197.951C1565.36 197.951 1560.74 197.951 1559.86 197.951C1558.98 197.951 1558.76 197.218 1558.76 196.851C1558.76 196.851 1558.76 196.631 1558.76 195.75C1558.76 194.87 1560.23 194.65 1560.96 194.65ZM1541.15 202.352L1541.15 206.753L1551.06 206.753L1541.15 213.355L1541.15 216.656L1544.45 216.656L1554.36 210.054L1556.56 210.054L1568.66 216.656L1571.96 216.656L1571.96 213.355L1559.86 206.753L1571.96 206.753L1571.96 202.352L1541.15 202.352ZM1474.04 134.135L1474.04 206.753L1477.34 210.054L1477.34 217.756L1436.63 258.467L1360.71 258.467L1349.7 269.47L1349.7 280.472L1336.5 293.676L1336.5 304.679L1338.7 304.679L1362.91 280.472L1436.63 280.472L1492.74 224.358L1492.74 146.238L1480.64 134.135L1474.04 134.135ZM1503.74 328.885L1475.14 357.492L1475.14 364.094L1481.74 364.094L1510.35 335.487L1510.35 328.885L1503.74 328.885ZM1181.36 334.386L1167.06 334.386L1167.06 346.489L1225.37 404.804L1238.58 404.805L1238.58 391.601L1181.36 334.386ZM1159.36 349.79L1148.35 349.79L1148.35 360.793L1206.67 419.108L1217.67 419.108L1217.67 408.105L1159.36 349.79ZM1139.55 365.194L1127.45 365.194L1127.45 377.297L1186.86 436.713L1200.07 436.713L1200.07 425.71L1139.55 365.194ZM970.106 182.547L976.708 182.547L1004.22 210.054L1004.22 216.656L998.714 216.656L970.106 188.048L970.106 182.547ZM722.542 141.836L773.155 141.836L849.075 217.756L875.482 217.756L969.006 311.28L969.006 350.891L1082.34 464.22L1082.34 489.526L1042.72 489.526L1025.12 471.922L1025.12 455.418L905.189 335.487L878.783 335.487L809.465 266.169L809.465 228.759L722.542 141.836ZM878.783 234.26L878.783 251.865L935.997 309.08L944.8 309.08L960.204 324.484L960.204 315.681L878.783 234.26ZM893.086 345.389L899.688 345.389L927.195 372.896L927.195 379.498L921.694 379.498L893.086 350.891L893.086 345.389ZM1269.38 222.157L1275.99 222.157L1302.39 195.75L1302.39 189.149L1295.79 189.149L1269.38 215.556L1269.38 222.157Z" stroke="#C9D137"/>
<path d="M1474.04 874.626L1474.04 802.007L1477.34 798.706L1477.34 791.004L1436.63 750.294L1360.71 750.294L1349.7 739.291L1349.7 728.288L1336.5 715.085L1336.5 704.082L1338.7 704.082L1362.91 728.288L1436.63 728.288L1492.74 784.403L1492.74 862.523L1480.64 874.626L1474.04 874.626Z" fill="#C9D137"/>
<path d="M1499.34 926.339L1527.95 897.732L1527.95 892.23L1522.45 892.23L1493.84 920.838L1493.84 926.339L1499.34 926.339Z" fill="#C9D137"/>
<path d="M1503.74 679.875L1475.14 651.268L1475.14 644.666L1481.74 644.666L1510.35 673.274L1510.35 679.875L1503.74 679.875Z" fill="#C9D137"/>
<path d="M970.107 826.213L976.708 826.213L1004.22 798.706L1004.22 792.104L998.714 792.104L970.107 820.712L970.107 826.213Z" fill="#C9D137"/>
<path d="M878.783 774.5L878.783 756.895L935.998 699.681L944.8 699.681L960.204 684.277L960.204 693.079L878.783 774.5Z" fill="#C9D137"/>
<path d="M893.087 663.371L899.688 663.371L927.196 635.864L927.196 629.262L921.694 629.262L893.087 657.87L893.087 663.371Z" fill="#C9D137"/>
<path d="M1269.38 786.603L1275.99 786.603L1302.39 813.01L1302.39 819.612L1295.79 819.612L1269.38 793.205L1269.38 786.603Z" fill="#C9D137"/>
<path d="M1414.62 1007.76L1414.62 940.643L1432.23 923.038L1476.24 923.038L1527.95 871.325L1527.95 774.5L1582.96 774.5L1619.27 738.191M1435.53 899.932L1469.64 899.932L1503.74 866.924L1503.74 780.001L1442.13 718.385L1367.31 718.385L1193.46 544.54L1175.86 544.54L1175.86 563.245L1113.14 625.962L1113.14 642.466L1196.77 726.087L1268.28 726.087L1335.4 793.205L1335.4 830.614L1404.72 899.932L1420.12 899.932M1435.53 899.932L1435.53 882.328L1388.21 835.016L1388.21 802.007L1238.58 652.368M1435.53 899.932L1420.12 899.932M1238.58 652.368L1257.28 633.664L1257.28 620.46L1244.08 620.46L1186.86 677.675L1186.86 690.878L1200.07 690.878C1200.07 690.878 1206.5 684.533 1214.51 676.575M1238.58 652.368C1232.31 658.823 1222.6 668.524 1214.51 676.575M1214.51 676.575L1224.27 686.34L1257.28 686.34L1373.91 802.971L1373.91 842.718L1420.12 888.93L1420.12 899.932M1459.73 872.425L1459.73 859.222M1453.13 872.425L1453.13 859.222M1453.13 852.62L1453.13 846.018M1459.73 852.62L1459.73 846.018M1459.73 839.417L1459.73 832.815M1453.13 839.417L1453.13 832.815M1595.07 690.878L1600.57 690.878L1620.37 710.683L1620.37 717.285M1620.37 717.285C1617.07 717.285 1613.77 719.486 1613.77 722.787C1613.77 726.087 1617.07 728.288 1620.37 728.288C1623.68 728.288 1626.98 726.087 1626.98 722.787C1626.98 719.486 1623.68 717.285 1620.37 717.285ZM1549.96 752.494L1501.54 752.494L1445.43 696.38L1372.81 696.38L1264.98 588.552L1328.8 588.552L1367.31 627.062L1382.71 627.062M1549.96 752.494L1569.76 752.494L1588.47 733.789L1588.47 718.385L1497.14 627.062L1402.52 627.062M1549.96 752.494L1563.16 739.291L1563.16 717.285L1486.14 640.265L1415.72 640.265L1402.52 627.062M1402.52 627.062L1382.71 627.062M1382.71 627.062L1382.71 618.26L1354.11 589.652L1354.11 572.048L1372.81 553.343L1575.26 553.343L1646.78 624.861L1646.78 640.265M1397.02 1007.76L1397.02 916.437L1316.7 836.116L1316.7 807.508L1248.48 739.291L1187.96 739.291L1094.44 645.767L1074.63 645.767L1059.23 661.171L1059.23 721.686L959.104 821.812L959.104 1007.76L1063.63 1007.76L1192.36 879.027L1193.46 877.927L1193.46 844.918L1255.08 783.302L1255.08 766.798L1244.08 755.795L1184.66 755.795L1085.64 656.769M1222.07 1007.76L1247.38 982.454L1260.58 982.454L1348.6 894.431L1348.6 883.428L1335.4 883.428L1211.07 1007.76M1189.06 1007.76L1214.37 982.454L1227.57 982.454L1315.6 894.431L1315.6 884.528L1301.29 884.528L1178.06 1007.76M1156.05 1007.76L1181.36 982.454L1194.56 982.454L1282.59 894.431L1282.59 884.528L1268.28 884.528L1145.05 1007.76M1123.05 1007.76L1148.35 982.454L1161.56 982.454L1249.58 894.431L1249.58 884.528L1235.28 884.528L1112.04 1007.76M1090.04 1007.76L1115.34 982.454L1128.55 982.454L1216.57 894.431L1216.57 884.528L1202.27 884.528L1079.03 1007.76M1116.44 907.634L1116.44 892.23M1116.44 887.829L1116.44 879.027M1116.44 874.626L1116.44 868.024M1109.84 874.626L1109.84 868.024M1109.84 879.027L1109.84 887.829M1109.84 892.23L1109.84 907.634M1061.43 901.033L1061.43 972.551L1068.03 972.551L1076.83 963.749L1076.83 950.545L1085.64 941.743L1098.84 941.743L1171.46 869.124L1171.46 822.912M1061.43 901.033L1061.43 886.729L1145.05 803.107L1160.46 803.107L1171.46 814.11L1171.46 822.912M1061.43 901.033L1125.25 837.216L1146.15 837.216L1160.46 822.912L1171.46 822.912M1046.03 983.554L1046.03 880.127L1153.85 772.299M1153.85 772.299L1158.26 772.299L1158.26 767.898L1153.85 767.898L1153.85 772.299ZM1137.35 772.299L1030.62 879.027L1030.62 983.554M1137.35 772.299L1140.65 772.299L1140.65 767.898L1136.25 767.898L1136.25 772.299L1137.35 772.299ZM1014.12 983.554L1014.12 879.027L1120.85 772.299M1120.85 772.299L1125.25 772.299L1125.25 767.898L1120.85 767.898L1120.85 772.299ZM1105.44 772.299L997.614 880.127L997.614 983.554M1105.44 772.299L1109.84 772.299L1109.84 767.898L1105.44 767.898L1105.44 772.299ZM1090.04 772.299L982.21 880.127L982.21 983.554M1090.04 772.299L1094.44 772.299L1094.44 767.898L1090.04 767.898L1090.04 772.299ZM864.479 985.755L864.479 964.849L931.597 897.732L931.597 886.729M854.577 976.952L854.577 957.147L922.794 888.93L922.794 877.927M845.774 968.15L845.774 948.345L913.992 880.127L913.992 868.024M836.972 959.348L836.972 938.442L905.19 870.225L905.19 859.222M894.187 850.42L894.187 862.523L827.07 929.64L827.07 948.345M817.167 938.442L817.167 919.737L885.385 851.52L885.385 840.517M876.582 831.715L876.582 842.718L808.365 910.935L808.365 930.74M954.703 781.102L918.393 781.102L993.213 706.282L993.213 658.97L1092.79 559.394M954.703 781.102L977.809 781.102L1043.83 715.085L1043.83 657.87L1066.93 634.764L1084.54 634.764L1159.36 559.944L1159.36 544.54L1134.05 519.234L1101.04 519.234L1101.04 551.142L1092.79 559.394M954.703 781.102L1035.02 700.781L1035.02 646.867L1107.64 574.248L1092.79 559.394M1395.92 519.234L1160.46 519.234L1171.46 530.237L1206.67 530.237L1247.38 570.947L1326.6 570.947L1359.61 537.939L1597.27 537.939L1615.97 519.234L1549.96 519.234M1214.37 831.715L1219.87 831.715L1238.58 850.42L1238.58 858.122M1238.58 858.122C1241.88 858.122 1244.08 860.102 1244.08 863.623C1244.08 867.144 1241.88 869.124 1238.58 869.124C1235.28 869.124 1233.07 866.924 1233.07 863.623C1233.07 860.322 1235.28 858.122 1238.58 858.122ZM1069.13 665.572L1074.63 665.572L1093.34 684.277L1093.34 691.979M1093.34 691.979C1096.64 691.979 1098.84 693.959 1098.84 697.48C1098.84 701.001 1096.64 702.981 1093.34 702.981C1090.04 702.981 1087.84 700.781 1087.84 697.48C1087.84 694.179 1090.04 691.979 1093.34 691.979ZM1499.34 926.339L1527.95 897.732L1527.95 892.23L1522.45 892.23L1493.84 920.838L1493.84 926.339L1499.34 926.339ZM1571.96 862.523L1541.15 862.523L1541.15 858.122L1554.36 858.122L1554.36 851.52L1541.15 851.52L1541.15 847.119L1571.96 847.119L1571.96 851.52L1558.76 851.52L1558.76 858.122L1571.96 858.122L1571.96 862.523ZM1565.36 838.316L1565.36 833.915L1571.96 832.815L1571.96 828.414L1541.15 833.915L1541.15 839.417L1571.96 843.818L1571.96 839.417L1565.36 838.316ZM1560.96 814.11L1566.46 814.11C1566.83 814.11 1567.56 814.33 1567.56 815.21C1567.56 816.091 1567.56 818.511 1567.56 819.612C1567.56 819.978 1567.34 820.712 1566.46 820.712C1565.58 820.712 1552.89 820.712 1546.66 820.712C1546.29 820.712 1545.56 820.492 1545.56 819.612C1545.56 818.731 1545.56 817.044 1545.56 816.311L1545.56 815.21C1545.56 814.844 1545.78 814.11 1546.66 814.11C1547.54 814.11 1548.49 814.11 1548.86 814.11C1549.22 814.11 1549.96 813.89 1549.96 813.01C1549.96 812.13 1549.96 811.91 1549.96 811.91C1549.96 811.543 1549.74 810.809 1548.86 810.809C1547.98 810.809 1545.56 810.809 1544.45 810.809C1540.05 810.809 1537.85 825.113 1546.66 825.113C1548.86 825.113 1562.06 825.113 1567.56 825.113C1573.06 825.113 1573.06 810.809 1567.56 810.809C1565.36 810.809 1560.74 810.809 1559.86 810.809C1558.98 810.809 1558.76 811.543 1558.76 811.91C1558.76 811.91 1558.76 812.13 1558.76 813.01C1558.76 813.89 1560.23 814.11 1560.96 814.11ZM1541.15 806.408L1541.15 802.007L1551.06 802.007L1541.15 795.405L1541.15 792.104L1544.45 792.104L1554.36 798.706L1556.56 798.706L1568.66 792.104L1571.96 792.104L1571.96 795.405L1559.86 802.007L1571.96 802.007L1571.96 806.408L1541.15 806.408ZM1474.04 874.626L1474.04 802.007L1477.34 798.706L1477.34 791.004L1436.63 750.294L1360.71 750.294L1349.7 739.291L1349.7 728.288L1336.5 715.085L1336.5 704.082L1338.7 704.082L1362.91 728.288L1436.63 728.288L1492.74 784.403L1492.74 862.523L1480.64 874.626L1474.04 874.626ZM1503.74 679.875L1475.14 651.268L1475.14 644.666L1481.74 644.666L1510.35 673.274L1510.35 679.875L1503.74 679.875ZM1181.36 674.374L1167.06 674.374L1167.06 662.271L1225.37 603.956L1238.58 603.956L1238.58 617.159L1181.36 674.374ZM1159.36 658.97L1148.35 658.97L1148.35 647.967L1206.67 589.652L1217.67 589.652L1217.67 600.655L1159.36 658.97ZM1139.55 643.566L1127.45 643.566L1127.45 631.463L1186.86 572.048L1200.07 572.048L1200.07 583.05L1139.55 643.566ZM970.107 826.213L976.708 826.213L1004.22 798.706L1004.22 792.104L998.714 792.104L970.107 820.712L970.107 826.213ZM722.543 866.924L773.156 866.924L849.075 791.004L875.482 791.004L969.006 697.48L969.006 657.87L1082.34 544.54L1082.34 519.234L1042.73 519.234L1025.12 536.838L1025.12 553.343L905.19 673.274L878.783 673.274L809.465 742.592L809.465 780.001L722.543 866.924ZM878.783 774.5L878.783 756.895L935.998 699.681L944.8 699.681L960.204 684.277L960.204 693.079L878.783 774.5ZM893.087 663.371L899.688 663.371L927.196 635.864L927.196 629.262L921.694 629.262L893.087 657.87L893.087 663.371ZM1269.38 786.603L1275.99 786.603L1302.39 813.01L1302.39 819.612L1295.79 819.612L1269.38 793.205L1269.38 786.603Z" stroke="#C9D137"/>
<path d="M-43.2555 874.626L-43.2555 802.007L-46.5563 798.706L-46.5563 791.004L-5.84583 750.294L70.0738 750.294L81.0766 739.291L81.0766 728.288L94.28 715.085L94.28 704.082L92.0795 704.082L67.8732 728.288L-5.84582 728.288L-61.9603 784.403L-61.9603 862.523L-49.8572 874.626L-43.2555 874.626Z" fill="#C9D137"/>
<path d="M-68.562 926.339L-97.1694 897.732L-97.1694 892.23L-91.668 892.23L-63.0606 920.838L-63.0606 926.339L-68.562 926.339Z" fill="#C9D137"/>
<path d="M-72.9632 679.875L-44.3558 651.268L-44.3558 644.666L-50.9575 644.666L-79.5649 673.274L-79.5649 679.875L-72.9632 679.875Z" fill="#C9D137"/>
<path d="M460.675 826.213L454.073 826.213L426.566 798.706L426.566 792.105L432.067 792.105L460.675 820.712L460.675 826.213Z" fill="#C9D137"/>
<path d="M551.998 774.5L551.998 756.895L494.783 699.681L485.981 699.681L470.577 684.277L470.577 693.079L551.998 774.5Z" fill="#C9D137"/>
<path d="M537.695 663.371L531.093 663.371L503.586 635.864L503.586 629.262L509.087 629.262L537.695 657.87L537.695 663.371Z" fill="#C9D137"/>
<path d="M161.397 786.603L154.796 786.603L128.389 813.01L128.389 819.612L134.991 819.612L161.397 793.205L161.397 786.603Z" fill="#C9D137"/>
<path d="M16.1598 1007.76L16.1599 940.643L-1.4447 923.038L-45.4561 923.038L-97.1694 871.325L-97.1694 774.5L-152.184 774.5L-188.493 738.191M-4.74555 899.932L-38.8544 899.932L-72.9632 866.924L-72.9632 780.001L-11.3472 718.385L63.4721 718.385L237.317 544.541L254.922 544.541L254.922 563.245L317.638 625.962L317.638 642.466L234.016 726.087L162.498 726.087L95.3803 793.205L95.3803 830.614L26.0624 899.932L10.6584 899.932M-4.74555 899.932L-4.74555 882.328L42.5667 835.016L42.5667 802.007L192.205 652.368M-4.74555 899.932L10.6584 899.932M192.205 652.368L173.501 633.664L173.501 620.46L186.704 620.46L243.919 677.675L243.919 690.878L230.715 690.878C230.715 690.878 224.28 684.533 216.275 676.575M192.205 652.368C198.476 658.823 208.178 668.524 216.275 676.575M216.275 676.575L206.509 686.34L173.501 686.34L56.8704 802.971L56.8704 842.718L10.6584 888.93L10.6584 899.932M-28.9518 872.425L-28.9518 859.222M-22.3501 872.425L-22.3501 859.222M-22.3501 852.62L-22.3501 846.018M-28.9518 852.62L-28.9518 846.018M-28.9518 839.417L-28.9518 832.815M-22.3501 839.417L-22.3501 832.815M-164.287 690.878L-169.788 690.878L-189.593 710.683L-189.593 717.285M-189.593 717.285C-186.292 717.285 -182.992 719.486 -182.992 722.787C-182.992 726.087 -186.292 728.288 -189.593 728.288C-192.894 728.288 -196.195 726.087 -196.195 722.787C-196.195 719.486 -192.894 717.285 -189.593 717.285ZM-119.175 752.494L-70.7626 752.494L-14.6481 696.38L57.9707 696.38L165.799 588.552L101.982 588.552L63.4721 627.062L48.0681 627.062M-119.175 752.494L-138.98 752.494L-157.685 733.789L-157.685 718.385L-66.3615 627.062L28.263 627.062M-119.175 752.494L-132.379 739.291L-132.379 717.285L-55.3586 640.265L15.0596 640.265L28.263 627.062M28.263 627.062L48.0681 627.062M48.0681 627.062L48.0681 618.26L76.6755 589.652L76.6755 572.048L57.9707 553.343L-144.482 553.343L-216 624.861L-216 640.265M33.7644 1007.76L33.7644 916.437L114.085 836.116L114.085 807.508L182.303 739.291L242.818 739.291L336.343 645.767L356.148 645.767L371.552 661.171L371.552 721.686L471.678 821.812L471.678 1007.76L367.151 1007.76L238.417 879.027L237.317 877.927L237.317 844.918L175.701 783.302L175.701 766.798L186.704 755.795L246.119 755.795L345.145 656.77M208.71 1007.76L183.403 982.454L170.2 982.454L82.1769 894.431L82.1769 883.428L95.3803 883.428L219.712 1007.76M241.718 1007.76L216.412 982.454L203.208 982.454L115.185 894.431L115.185 884.528L129.489 884.528L252.721 1007.76M274.727 1007.76L249.42 982.454L236.217 982.454L148.194 894.431L148.194 884.528L162.498 884.528L285.729 1007.76M307.735 1007.76L282.429 982.454L269.225 982.454L181.202 894.431L181.202 884.528L195.506 884.528L318.738 1007.76M340.744 1007.76L315.437 982.454L302.234 982.454L214.211 894.431L214.211 884.528L228.515 884.528L351.747 1007.76M314.337 907.634L314.337 892.23M314.337 887.829L314.337 879.027M314.337 874.626L314.337 868.024M320.939 874.626L320.939 868.024M320.939 879.027L320.939 887.829M320.939 892.23L320.939 907.634M369.351 901.033L369.351 972.551L362.749 972.551L353.947 963.749L353.947 950.545L345.145 941.743L331.941 941.743L259.323 869.124L259.323 822.912M369.351 901.033L369.351 886.729L285.729 803.107L270.326 803.107L259.323 814.11L259.323 822.912M369.351 901.033L305.535 837.216L284.629 837.216L270.326 822.912L259.323 822.912M384.755 983.554L384.755 880.127L276.927 772.299M276.927 772.299L272.526 772.299L272.526 767.898L276.927 767.898L276.927 772.299ZM293.431 772.299L400.159 879.027L400.159 983.554M293.431 772.299L290.131 772.299L290.131 767.898L294.532 767.898L294.532 772.299L293.431 772.299ZM416.663 983.554L416.663 879.027L309.936 772.299M309.936 772.299L305.535 772.299L305.535 767.898L309.936 767.898L309.936 772.299ZM325.34 772.299L433.168 880.127L433.168 983.554M325.34 772.299L320.939 772.299L320.939 767.898L325.34 767.898L325.34 772.299ZM340.744 772.299L448.572 880.127L448.572 983.554M340.744 772.299L336.343 772.299L336.343 767.898L340.744 767.898L340.744 772.299ZM566.302 985.755L566.302 964.849L499.185 897.732L499.185 886.729M576.205 976.952L576.205 957.147L507.987 888.93L507.987 877.927M585.007 968.15L585.007 948.345L516.789 880.127L516.789 868.024M593.809 959.348L593.809 938.442L525.591 870.225L525.591 859.222M536.594 850.42L536.594 862.523L603.712 929.64L603.712 948.345M613.614 938.442L613.614 919.738L545.397 851.52L545.397 840.517M554.199 831.715L554.199 842.718L622.416 910.935L622.416 930.74M476.079 781.102L512.388 781.102L437.569 706.282L437.569 658.97L337.993 559.394M476.079 781.102L452.973 781.102L386.956 715.085L386.956 657.87L363.85 634.764L346.245 634.764L271.426 559.945L271.426 544.541L296.732 519.234L329.741 519.234L329.741 551.142L337.993 559.394M476.079 781.102L395.758 700.781L395.758 646.867L323.139 574.248L337.993 559.394M34.8647 519.234L270.326 519.234L259.323 530.237L224.114 530.237L183.403 570.947L104.183 570.947L71.1741 537.939L-166.487 537.939L-185.192 519.234L-119.175 519.234M216.412 831.715L210.91 831.715L192.205 850.42L192.205 858.122M192.205 858.122C188.904 858.122 186.704 860.102 186.704 863.623C186.704 867.144 188.904 869.124 192.205 869.124C195.506 869.124 197.707 866.924 197.707 863.623C197.707 860.322 195.506 858.122 192.205 858.122ZM361.649 665.572L356.148 665.572L337.443 684.277L337.443 691.979M337.443 691.979C334.142 691.979 331.941 693.959 331.941 697.48C331.941 701.001 334.142 702.981 337.443 702.981C340.744 702.981 342.944 700.781 342.944 697.48C342.944 694.179 340.744 691.979 337.443 691.979ZM-68.562 926.339L-97.1694 897.732L-97.1694 892.23L-91.668 892.23L-63.0606 920.838L-63.0606 926.339L-68.562 926.339ZM-141.181 862.523L-110.373 862.523L-110.373 858.122L-123.576 858.122L-123.576 851.52L-110.373 851.52L-110.373 847.119L-141.181 847.119L-141.181 851.52L-127.977 851.52L-127.977 858.122L-141.181 858.122L-141.181 862.523ZM-134.579 838.316L-134.579 833.915L-141.181 832.815L-141.181 828.414L-110.373 833.915L-110.373 839.417L-141.181 843.818L-141.181 839.417L-134.579 838.316ZM-130.178 814.11L-135.679 814.11C-136.046 814.11 -136.78 814.33 -136.78 815.21C-136.78 816.091 -136.78 818.511 -136.78 819.612C-136.78 819.978 -136.56 820.712 -135.679 820.712C-134.799 820.712 -122.109 820.712 -115.874 820.712C-115.507 820.712 -114.774 820.492 -114.774 819.612C-114.774 818.731 -114.774 817.044 -114.774 816.311L-114.774 815.21C-114.774 814.844 -114.994 814.11 -115.874 814.11C-116.754 814.11 -117.708 814.11 -118.075 814.11C-118.442 814.11 -119.175 813.89 -119.175 813.01C-119.175 812.13 -119.175 811.91 -119.175 811.91C-119.175 811.543 -118.955 810.809 -118.075 810.809C-117.195 810.809 -114.774 810.809 -113.674 810.809C-109.273 810.809 -107.072 825.113 -115.874 825.113C-118.075 825.113 -131.278 825.113 -136.78 825.113C-142.281 825.113 -142.281 810.809 -136.78 810.809C-134.579 810.809 -129.958 810.809 -129.078 810.809C-128.197 810.809 -127.977 811.543 -127.977 811.91C-127.977 811.91 -127.977 812.13 -127.977 813.01C-127.977 813.89 -129.444 814.11 -130.178 814.11ZM-110.373 806.408L-110.373 802.007L-120.275 802.007L-110.373 795.405L-110.373 792.105L-113.674 792.105L-123.576 798.706L-125.777 798.706L-137.88 792.105L-141.181 792.105L-141.181 795.405L-129.078 802.007L-141.181 802.007L-141.181 806.408L-110.373 806.408ZM-43.2555 874.626L-43.2555 802.007L-46.5563 798.706L-46.5563 791.004L-5.84583 750.294L70.0738 750.294L81.0766 739.291L81.0766 728.288L94.28 715.085L94.28 704.082L92.0795 704.082L67.8732 728.288L-5.84582 728.288L-61.9603 784.403L-61.9603 862.523L-49.8572 874.626L-43.2555 874.626ZM-72.9632 679.875L-44.3558 651.268L-44.3558 644.666L-50.9575 644.666L-79.5649 673.274L-79.5649 679.875L-72.9632 679.875ZM249.42 674.374L263.724 674.374L263.724 662.271L205.409 603.956L192.205 603.956L192.205 617.159L249.42 674.374ZM271.426 658.97L282.429 658.97L282.429 647.967L224.114 589.652L213.111 589.652L213.111 600.655L271.426 658.97ZM291.231 643.566L303.334 643.566L303.334 631.463L243.919 572.048L230.715 572.048L230.715 583.05L291.231 643.566ZM460.675 826.213L454.073 826.213L426.566 798.706L426.566 792.105L432.067 792.105L460.675 820.712L460.675 826.213ZM708.239 866.924L657.626 866.924L581.706 791.004L555.299 791.004L461.775 697.48L461.775 657.87L348.446 544.541L348.446 519.234L388.056 519.234L405.66 536.839L405.66 553.343L525.591 673.274L551.998 673.274L621.316 742.592L621.316 780.001L708.239 866.924ZM551.998 774.5L551.998 756.895L494.783 699.681L485.981 699.681L470.577 684.277L470.577 693.079L551.998 774.5ZM537.695 663.371L531.093 663.371L503.586 635.864L503.586 629.262L509.087 629.262L537.695 657.87L537.695 663.371ZM161.397 786.603L154.796 786.603L128.389 813.01L128.389 819.612L134.991 819.612L161.397 793.205L161.397 786.603Z" stroke="#C9D137"/>
<path d="M-43.2552 135.235L-43.2552 207.854L-46.5561 211.155L-46.5561 218.857L-5.84554 259.567L70.0741 259.567L81.0769 270.57L81.0769 281.573L94.2803 294.776L94.2803 305.779L92.0798 305.779L67.8735 281.573L-5.84554 281.573L-61.96 225.458L-61.96 147.338L-49.8569 135.235L-43.2552 135.235Z" fill="#C9D137"/>
<path d="M-68.5617 83.5215L-97.1691 112.129L-97.1691 117.63L-91.6677 117.63L-63.0603 89.0229L-63.0603 83.5215L-68.5617 83.5215Z" fill="#C9D137"/>
<path d="M-72.9629 329.985L-44.3555 358.593L-44.3555 365.194L-50.9572 365.194L-79.5646 336.587L-79.5646 329.985L-72.9629 329.985Z" fill="#C9D137"/>
<path d="M460.675 183.647L454.073 183.647L426.566 211.155L426.566 217.756L432.068 217.756L460.675 189.149L460.675 183.647Z" fill="#C9D137"/>
<path d="M551.999 235.361L551.999 252.965L494.784 310.18L485.982 310.18L470.578 325.584L470.578 316.782L551.999 235.361Z" fill="#C9D137"/>
<path d="M537.695 346.49L531.093 346.49L503.586 373.997L503.586 380.598L509.087 380.598L537.695 351.991L537.695 346.49Z" fill="#C9D137"/>
<path d="M161.398 223.258L154.796 223.258L128.389 196.851L128.389 190.249L134.991 190.249L161.398 216.656L161.398 223.258Z" fill="#C9D137"/>
<path d="M16.1602 2.10047L16.1602 69.2178L-1.4444 86.8224L-45.4558 86.8224L-97.1691 138.536L-97.1691 235.361L-152.183 235.361L-188.493 271.67M-4.74525 109.928L-38.8541 109.928L-72.9629 142.937L-72.9629 229.859L-11.347 291.475L63.4724 291.475L237.317 465.32L254.922 465.32L254.922 446.615L317.638 383.899L317.638 367.395L234.016 283.773L162.498 283.773L95.3806 216.656L95.3806 179.246L26.0627 109.928L10.6587 109.928M-4.74525 109.928L-4.74525 127.533L42.567 174.845L42.567 207.854L192.206 357.492M-4.74525 109.928L10.6587 109.928M192.206 357.492L173.501 376.197L173.501 389.401L186.704 389.401L243.919 332.186L243.919 318.982L230.716 318.982C230.716 318.982 224.28 325.328 216.275 333.286M192.206 357.492C198.476 351.037 208.178 341.336 216.275 333.286M216.275 333.286L206.509 323.52L173.501 323.52L56.8707 206.89L56.8707 167.143L10.6587 120.931L10.6587 109.928M-28.9515 137.435L-28.9515 150.639M-22.3498 137.435L-22.3498 150.639M-22.3498 157.241L-22.3498 163.842M-28.9515 157.241L-28.9515 163.842M-28.9515 170.444L-28.9515 177.046M-22.3498 170.444L-22.3498 177.046M-164.286 318.982L-169.788 318.982L-189.593 299.177L-189.593 292.576M-189.593 292.576C-186.292 292.576 -182.991 290.375 -182.991 287.074C-182.991 283.773 -186.292 281.573 -189.593 281.573C-192.894 281.573 -196.195 283.773 -196.195 287.074C-196.195 290.375 -192.894 292.576 -189.593 292.576ZM-119.175 257.366L-70.7623 257.366L-14.6478 313.481L57.9709 313.481L165.799 421.309L101.982 421.309L63.4724 382.799L48.0684 382.799M-119.175 257.366L-138.98 257.366L-157.685 276.071L-157.685 291.475L-66.3612 382.799L28.2633 382.799M-119.175 257.366L-132.378 270.57L-132.378 292.576L-55.3583 369.595L15.0599 369.595L28.2633 382.799M28.2633 382.799L48.0684 382.799M48.0684 382.799L48.0684 391.601L76.6758 420.209L76.6758 437.813L57.9709 456.518L-144.481 456.518L-216 384.999L-216 369.595M33.7647 2.10047L33.7647 93.4241L114.085 173.745L114.085 202.352L182.303 270.57L242.819 270.57L336.343 364.094L356.148 364.094L371.552 348.69L371.552 288.174L471.678 188.049L471.678 2.10049L367.151 2.10049L238.418 130.834L237.317 131.934L237.317 164.943L175.701 226.559L175.701 243.063L186.704 254.066L246.12 254.066L345.145 353.091M208.71 2.10048L183.403 27.407L170.2 27.407L82.1772 115.43L82.1772 126.433L95.3806 126.433L219.713 2.10048M241.718 2.10048L216.412 27.407L203.208 27.407L115.186 115.43L115.186 125.332L129.489 125.332L252.721 2.10048M274.727 2.10049L249.42 27.407L236.217 27.407L148.194 115.43L148.194 125.332L162.498 125.332L285.73 2.10049M307.735 2.10049L282.429 27.407L269.226 27.407L181.203 115.43L181.203 125.332L195.506 125.332L318.738 2.10049M340.744 2.10049L315.437 27.407L302.234 27.407L214.211 115.43L214.211 125.332L228.515 125.332L351.747 2.10049M314.337 102.226L314.337 117.63M314.337 122.031L314.337 130.834M314.337 135.235L314.337 141.837M320.939 135.235L320.939 141.837M320.939 130.834L320.939 122.031M320.939 117.63L320.939 102.226M369.351 108.828L369.351 37.3096L362.75 37.3096L353.947 46.1119L353.947 59.3153L345.145 68.1176L331.942 68.1176L259.323 140.736L259.323 186.948M369.351 108.828L369.351 123.132L285.73 206.753L270.326 206.753L259.323 195.751L259.323 186.948M369.351 108.828L305.535 172.645L284.629 172.645L270.326 186.948L259.323 186.948M384.755 26.3067L384.755 129.733L276.928 237.561M276.928 237.561L272.526 237.561L272.526 241.962L276.928 241.962L276.928 237.561ZM293.432 237.561L400.159 130.834L400.159 26.3067M293.432 237.561L290.131 237.561L290.131 241.962L294.532 241.962L294.532 237.561L293.432 237.561ZM416.664 26.3067L416.664 130.834L309.936 237.561M309.936 237.561L305.535 237.561L305.535 241.962L309.936 241.962L309.936 237.561ZM325.34 237.561L433.168 129.733L433.168 26.3068M325.34 237.561L320.939 237.561L320.939 241.962L325.34 241.962L325.34 237.561ZM340.744 237.561L448.572 129.733L448.572 26.3068M340.744 237.561L336.343 237.561L336.343 241.962L340.744 241.962L340.744 237.561ZM566.302 24.1062L566.302 45.0116L499.185 112.129L499.185 123.132M576.205 32.9085L576.205 52.7136L507.987 120.931L507.987 131.934M585.007 41.7107L585.007 61.5159L516.789 129.733L516.789 141.837M593.809 50.513L593.809 71.4184L525.592 139.636L525.592 150.639M536.595 159.441L536.595 147.338L603.712 80.2207L603.712 61.5159M613.614 71.4184L613.614 90.1233L545.397 158.341L545.397 169.344M554.199 178.146L554.199 167.143L622.417 98.9255L622.417 79.1204M476.079 228.759L512.388 228.759L437.569 303.578L437.569 350.891L337.993 450.466M476.079 228.759L452.973 228.759L386.956 294.776L386.956 351.991L363.85 375.097L346.245 375.097L271.426 449.916L271.426 465.32L296.733 490.627L329.741 490.627L329.741 458.719L337.993 450.466M476.079 228.759L395.758 309.08L395.758 362.994L323.139 435.613L337.993 450.466M34.865 490.627L270.326 490.627L259.323 479.624L224.114 479.624L183.403 438.913L104.183 438.913L71.1743 471.922L-166.487 471.922L-185.192 490.627L-119.175 490.627M216.412 178.146L210.91 178.146L192.206 159.441L192.206 151.739M192.206 151.739C188.905 151.739 186.704 149.759 186.704 146.238C186.704 142.717 188.905 140.736 192.206 140.736C195.506 140.736 197.707 142.937 197.707 146.238C197.707 149.539 195.506 151.739 192.206 151.739ZM361.649 344.289L356.148 344.289L337.443 325.584L337.443 317.882M337.443 317.882C334.142 317.882 331.942 315.902 331.942 312.381C331.942 308.86 334.142 306.879 337.443 306.879C340.744 306.879 342.945 309.08 342.945 312.381C342.945 315.682 340.744 317.882 337.443 317.882ZM-68.5617 83.5215L-97.1691 112.129L-97.1691 117.63L-91.6677 117.63L-63.0603 89.0229L-63.0603 83.5215L-68.5617 83.5215ZM-141.18 147.338L-110.373 147.338L-110.373 151.739L-123.576 151.739L-123.576 158.341L-110.373 158.341L-110.373 162.742L-141.18 162.742L-141.18 158.341L-127.977 158.341L-127.977 151.739L-141.18 151.739L-141.18 147.338ZM-134.579 171.544L-134.579 175.945L-141.18 177.046L-141.18 181.447L-110.373 175.945L-110.373 170.444L-141.18 166.043L-141.18 170.444L-134.579 171.544ZM-130.178 195.751L-135.679 195.751C-136.046 195.751 -136.779 195.53 -136.779 194.65C-136.779 193.77 -136.779 191.349 -136.779 190.249C-136.779 189.882 -136.559 189.149 -135.679 189.149C-134.799 189.149 -122.109 189.149 -115.874 189.149C-115.507 189.149 -114.774 189.369 -114.774 190.249C-114.774 191.129 -114.774 192.816 -114.774 193.55L-114.774 194.65C-114.774 195.017 -114.994 195.751 -115.874 195.751C-116.754 195.751 -117.708 195.751 -118.075 195.751C-118.441 195.751 -119.175 195.971 -119.175 196.851C-119.175 197.731 -119.175 197.951 -119.175 197.951C-119.175 198.318 -118.955 199.051 -118.075 199.051C-117.194 199.051 -114.774 199.051 -113.673 199.051C-109.272 199.051 -107.072 184.748 -115.874 184.748C-118.075 184.748 -131.278 184.748 -136.779 184.748C-142.281 184.748 -142.281 199.051 -136.779 199.051C-134.579 199.051 -129.958 199.051 -129.077 199.051C-128.197 199.051 -127.977 198.318 -127.977 197.951C-127.977 197.951 -127.977 197.731 -127.977 196.851C-127.977 195.971 -129.444 195.751 -130.178 195.751ZM-110.373 203.453L-110.373 207.854L-120.275 207.854L-110.373 214.455L-110.373 217.756L-113.673 217.756L-123.576 211.155L-125.777 211.155L-137.88 217.756L-141.18 217.756L-141.18 214.455L-129.077 207.854L-141.18 207.854L-141.18 203.453L-110.373 203.453ZM-43.2552 135.235L-43.2552 207.854L-46.5561 211.155L-46.5561 218.857L-5.84554 259.567L70.0741 259.567L81.0769 270.57L81.0769 281.573L94.2803 294.776L94.2803 305.779L92.0798 305.779L67.8735 281.573L-5.84554 281.573L-61.96 225.458L-61.96 147.338L-49.8569 135.235L-43.2552 135.235ZM-72.9629 329.985L-44.3555 358.593L-44.3555 365.194L-50.9572 365.194L-79.5646 336.587L-79.5646 329.985L-72.9629 329.985ZM249.42 335.487L263.724 335.487L263.724 347.59L205.409 405.905L192.206 405.905L192.206 392.701L249.42 335.487ZM271.426 350.891L282.429 350.891L282.429 361.894L224.114 420.209L213.111 420.209L213.111 409.206L271.426 350.891ZM291.231 366.295L303.334 366.295L303.334 378.398L243.919 437.813L230.716 437.813L230.716 426.81L291.231 366.295ZM460.675 183.647L454.073 183.647L426.566 211.155L426.566 217.756L432.068 217.756L460.675 189.149L460.675 183.647ZM708.239 142.937L657.626 142.937L581.706 218.857L555.299 218.857L461.775 312.381L461.775 351.991L348.446 465.32L348.446 490.627L388.056 490.627L405.661 473.022L405.661 456.518L525.592 336.587L551.999 336.587L621.316 267.269L621.316 229.859L708.239 142.937ZM551.999 235.361L551.999 252.965L494.784 310.18L485.982 310.18L470.578 325.584L470.578 316.782L551.999 235.361ZM537.695 346.49L531.093 346.49L503.586 373.997L503.586 380.598L509.087 380.598L537.695 351.991L537.695 346.49ZM161.398 223.258L154.796 223.258L128.389 196.851L128.389 190.249L134.991 190.249L161.398 216.656L161.398 223.258Z" stroke="#C9D137"/>
</g>
<path d="M353.5 131.5H987.793L1017.65 161.354L1042.65 186.354L1065.5 209.207V896.5H451.207L402.354 847.647L353.5 798.793V131.5Z" fill="#1B1F3B" stroke="#C9D137"/>
<path d="M373.5 111.5H1007.79L1037.65 141.354L1062.65 166.354L1085.5 189.207V876.5H471.207L422.354 827.647L373.5 778.793V111.5Z" fill="#1B1F3B" stroke="#C9D137"/>
</svg>
