<svg width="430" height="879" viewBox="0 0 430 879" fill="none" xmlns="http://www.w3.org/2000/svg">
<g opacity="0.3" clip-path="url(#clip0_170_152)">
<path d="M384.173 81.5143L351.075 81.5143L349.571 79.9567L346.06 79.9567L327.506 99.167L327.506 134.992L322.491 140.183L317.476 140.183L311.459 146.414L306.444 146.414L306.444 145.375L317.476 133.953L317.476 99.167L343.052 72.688L378.656 72.688L384.173 78.3991L384.173 81.5143Z" fill="#C9D137"/>
<path d="M407.742 69.5728L394.704 56.0737L392.196 56.0737L392.196 58.6697L405.235 72.1688L407.742 72.1688L407.742 69.5728Z" fill="#C9D137"/>
<path d="M295.411 67.496L282.373 80.9951L279.364 80.9951L279.364 77.8799L292.402 64.3808L295.411 64.3808L295.411 67.496Z" fill="#C9D137"/>
<path d="M362.108 319.306L362.108 316.191L349.571 303.211L346.562 303.211L346.562 305.807L359.6 319.306L362.108 319.306Z" fill="#C9D137"/>
<path d="M338.538 362.399L330.515 362.399L304.438 335.401L304.438 331.248L297.417 323.979L301.429 323.979L338.538 362.399Z" fill="#C9D137"/>
<path d="M287.889 355.65L287.889 352.535L275.352 339.555L272.343 339.555L272.343 342.151L285.382 355.65L287.889 355.65Z" fill="#C9D137"/>
<path d="M344.055 178.085L344.055 174.97L356.09 162.509L359.099 162.509L359.099 165.624L347.063 178.085L344.055 178.085Z" fill="#C9D137"/>
<path d="M444.851 109.551L414.261 109.551L406.238 101.244L406.238 80.4759L382.668 56.0737L338.538 56.0737L338.538 30.1139L321.99 12.9804M395.707 99.6862L395.707 83.5911L380.662 67.496L341.046 67.496L312.963 96.571L312.963 131.876L233.73 213.909L233.73 222.216L242.255 222.216L270.839 251.811L278.361 251.811L316.473 212.352L316.473 178.604L347.063 146.933L364.114 146.933L395.707 114.224L395.707 106.955M395.707 99.6862L387.683 99.6862L366.119 122.012L351.075 122.012L282.874 192.622M395.707 99.6862L395.707 106.955M282.874 192.622L274.349 183.796L268.332 183.796L268.332 190.026L294.408 217.025L300.426 217.025L300.426 210.794C300.426 210.794 297.534 207.757 293.907 203.98M282.874 192.622C285.816 195.581 290.238 200.159 293.907 203.98M293.907 203.98L298.358 199.372L298.358 183.796L351.514 128.761L369.63 128.761L390.692 106.955L395.707 106.955M383.17 88.2638L377.152 88.2639M383.17 91.379L377.152 91.379M374.143 91.379L371.134 91.379M374.143 88.2639L371.134 88.2639M368.125 88.2639L365.117 88.2639M368.125 91.379L365.117 91.379M300.426 24.4027L300.426 21.8067L309.453 12.4612L312.461 12.4612M312.461 12.4612C312.461 14.0188 313.464 15.5764 314.969 15.5764C316.473 15.5764 317.476 14.0188 317.476 12.4612C317.476 10.9036 316.473 9.34603 314.969 9.34603C313.464 9.34603 312.461 10.9036 312.461 12.4612ZM328.509 45.6898L328.509 68.5344L302.933 95.0134L302.933 129.28L253.789 180.162L253.789 150.048L271.34 131.876L271.34 124.608M328.509 45.6898L328.509 36.3442L319.984 27.5179L312.963 27.5179L271.34 70.6112L271.34 115.262M328.509 45.6898L322.491 39.4594L312.461 39.4594L277.358 75.8031L277.358 109.032L271.34 115.262M271.34 115.262L271.34 124.608M271.34 124.608L267.329 124.608L254.29 138.107L246.267 138.107L237.741 129.28L237.741 33.7483L270.337 0.000503538L277.358 0.000502924M444.851 117.858L403.229 117.858L366.621 155.759L353.583 155.759L322.491 187.95L322.491 216.505L279.866 260.637L279.866 269.983L286.886 277.251L314.467 277.251L360.102 324.498L444.851 324.498L444.851 275.174L386.179 214.429L385.677 213.909L370.633 213.909L342.55 184.834L335.028 184.834L330.013 190.026L330.013 218.063L284.88 264.791M444.851 200.41L433.317 188.469L433.317 182.238L393.199 140.703L388.184 140.703L388.184 146.933L444.851 205.602M444.851 215.986L433.317 204.045L433.317 197.814L393.199 156.279L388.686 156.279L388.686 163.028L444.851 221.178M444.851 231.562L433.317 219.62L433.317 213.39L393.199 171.854L388.686 171.854L388.686 178.604L444.851 236.754M444.851 247.138L433.317 235.196L433.317 228.966L393.199 187.43L388.686 187.43L388.686 194.18L444.851 252.33M444.851 262.714L433.317 250.772L433.317 244.542L393.199 203.006L388.686 203.006L388.686 209.756L444.851 267.906M399.217 250.253L392.196 250.253M390.19 250.253L386.179 250.253M384.173 250.253L381.164 250.253M384.173 253.368L381.164 253.368M386.179 253.368L390.19 253.368M392.196 253.368L399.217 253.368M396.208 276.213L428.804 276.213L428.804 273.098L424.792 268.944L418.775 268.944L414.763 264.791L414.763 258.56L381.665 224.293L360.603 224.293M396.208 276.213L389.689 276.213L351.577 236.754L351.577 229.485L356.591 224.293L360.603 224.293M396.208 276.213L367.122 246.099L367.122 236.235L360.603 229.485L360.603 224.293M433.819 283.482L386.68 283.482L337.535 232.6M337.535 232.6L337.535 230.524L335.529 230.524L335.529 232.6L337.535 232.6ZM337.535 240.388L386.179 290.75L433.819 290.75M337.535 240.388L337.535 238.831L335.529 238.831L335.529 240.908L337.535 240.908L337.535 240.388ZM433.819 298.538L386.179 298.538L337.535 248.176M337.535 248.176L337.535 246.1L335.529 246.1L335.529 248.176L337.535 248.176ZM337.535 255.445L386.68 306.326L433.819 306.326M337.535 255.445L337.535 253.368L335.529 253.368L335.529 255.445L337.535 255.445ZM337.535 262.714L386.68 313.595L433.819 313.595M337.535 262.714L337.535 260.637L335.529 260.637L335.529 262.714L337.535 262.714ZM434.822 369.149L425.294 369.149L394.704 337.478L389.689 337.478M430.81 373.822L421.783 373.822L390.692 341.632L385.677 341.632M426.798 377.975L417.772 377.975L386.68 345.785L381.164 345.785M422.786 382.129L413.258 382.129L382.167 349.939L377.152 349.939M373.14 355.131L378.656 355.131L409.247 386.802L417.772 386.802M413.258 391.474L404.733 391.474L373.642 359.284L368.627 359.284M364.615 363.438L369.63 363.438L400.721 395.628L409.748 395.628M341.547 326.575L341.547 343.708L307.447 308.403L285.883 308.403L240.5 261.416M341.547 326.575L341.547 315.672L311.459 284.52L285.382 284.52L274.851 273.617L274.851 265.31L240.75 230.004L233.73 230.004L222.196 241.946L222.196 257.522L236.739 257.522L240.5 261.416M341.547 326.575L304.939 288.674L280.367 288.674L247.27 254.407L240.5 261.416M222.196 118.377L222.196 229.485L227.21 224.293L227.21 207.679L245.765 188.469L245.765 151.087L230.721 135.511L230.721 23.3643L222.196 14.538L222.196 45.6898M364.615 204.045L364.615 201.449L373.14 192.622L376.651 192.622M376.651 192.622C376.651 191.065 377.553 190.026 379.158 190.026C380.763 190.026 381.665 191.065 381.665 192.622C381.665 194.18 380.662 195.218 379.158 195.218C377.653 195.218 376.651 194.18 376.651 192.622ZM288.892 272.579L288.892 269.983L297.417 261.156L300.928 261.156M300.928 261.156C300.928 259.599 301.83 258.56 303.435 258.56C305.04 258.56 305.942 259.599 305.942 261.156C305.942 262.714 304.939 263.752 303.435 263.752C301.93 263.752 300.928 262.714 300.928 261.156ZM407.742 69.5728L394.704 56.0737L392.196 56.0737L392.196 58.6697L405.235 72.1688L407.742 72.1688L407.742 69.5728ZM378.656 35.3058L378.656 49.8433L376.65 49.8433L376.65 43.613L373.642 43.613L373.642 49.8433L371.636 49.8433L371.636 35.3058L373.642 35.3058L373.642 41.5362L376.65 41.5362L376.65 35.3058L378.656 35.3058ZM367.624 38.421L365.618 38.421L365.117 35.3058L363.111 35.3058L365.618 49.8433L368.125 49.8433L370.131 35.3058L368.125 35.3058L367.624 38.421ZM356.591 40.4978L356.591 37.9018C356.591 37.7288 356.692 37.3826 357.093 37.3826C357.494 37.3826 358.597 37.3826 359.099 37.3826C359.266 37.3826 359.6 37.4865 359.6 37.9018C359.6 38.3172 359.6 44.3052 359.6 47.2474C359.6 47.4204 359.5 47.7665 359.099 47.7665C358.698 47.7665 357.929 47.7665 357.594 47.7665L357.093 47.7665C356.926 47.7665 356.591 47.6627 356.591 47.2474C356.591 46.832 356.591 46.382 356.591 46.209C356.591 46.0359 356.491 45.6898 356.09 45.6898C355.689 45.6898 355.588 45.6898 355.588 45.6898C355.421 45.6898 355.087 45.7936 355.087 46.209C355.087 46.6243 355.087 47.7665 355.087 48.2857C355.087 50.3625 361.606 51.4009 361.606 47.2474C361.606 46.209 361.606 39.9786 361.606 37.3826C361.606 34.7866 355.087 34.7866 355.087 37.3826C355.087 38.421 355.087 40.6016 355.087 41.017C355.087 41.4324 355.421 41.5362 355.588 41.5362C355.588 41.5362 355.689 41.5362 356.09 41.5362C356.491 41.5362 356.591 40.8439 356.591 40.4978ZM353.081 49.8433L351.075 49.8433L351.075 45.1706L348.066 49.8433L346.562 49.8433L346.562 48.2857L349.571 43.613L349.571 42.5746L346.562 36.8634L346.562 35.3058L348.066 35.3058L351.075 41.017L351.075 35.3058L353.081 35.3058L353.081 49.8433ZM384.173 81.5143L351.075 81.5143L349.571 79.9567L346.06 79.9567L327.506 99.167L327.506 134.992L322.491 140.183L317.476 140.183L311.459 146.414L306.444 146.414L306.444 145.375L317.476 133.953L317.476 99.167L343.052 72.688L378.656 72.688L384.173 78.3991L384.173 81.5143ZM295.411 67.496L282.373 80.9951L279.364 80.9951L279.364 77.8799L292.402 64.3808L295.411 64.3808L295.411 67.496ZM292.904 219.62L292.904 226.37L287.388 226.37L260.809 198.853L260.809 192.622L266.827 192.622L292.904 219.62ZM285.883 230.004L285.883 235.196L280.868 235.196L254.29 207.679L254.29 202.487L259.305 202.487L285.883 230.004ZM278.863 239.35L278.863 245.061L273.346 245.061L246.267 217.025L246.267 210.794L251.281 210.794L278.863 239.35ZM362.108 319.306L362.108 316.191L349.571 303.211L346.562 303.211L346.562 305.807L359.6 319.306L362.108 319.306ZM380.662 436.125L380.662 412.242L346.06 376.418L346.06 363.957L303.435 319.825L285.382 319.825L233.73 266.348L222.196 266.348L222.196 285.039L230.219 293.346L237.741 293.346L292.402 349.939L292.402 362.399L323.995 395.109L341.046 395.109L380.662 436.125ZM338.538 362.399L330.515 362.399L304.438 335.401L304.438 331.248L297.417 323.979L301.429 323.979L338.538 362.399ZM287.889 355.65L287.889 352.535L275.352 339.555L272.343 339.555L272.343 342.151L285.382 355.65L287.889 355.65ZM344.055 178.085L344.055 174.97L356.09 162.509L359.099 162.509L359.099 165.624L347.063 178.085L344.055 178.085Z" stroke="#C9D137"/>
<path d="M46.6787 81.5138L79.7762 81.5138L81.2806 79.9562L84.7909 79.9562L103.346 99.1665L103.346 134.991L108.36 140.183L113.375 140.183L119.393 146.413L124.408 146.413L124.408 145.375L113.375 133.953L113.375 99.1665L87.7998 72.6875L52.1949 72.6875L46.6787 78.3986L46.6787 81.5138Z" fill="#C9D137"/>
<path d="M23.1093 69.5723L36.1477 56.0732L38.6551 56.0732L38.6551 58.6692L25.6167 72.1683L23.1093 72.1683L23.1093 69.5723Z" fill="#C9D137"/>
<path d="M135.44 67.4955L148.478 80.9946L151.487 80.9946L151.487 77.8794L138.449 64.3803L135.44 64.3803L135.44 67.4955Z" fill="#C9D137"/>
<path d="M68.7437 319.306L68.7437 316.19L81.2806 303.211L84.2895 303.211L84.2895 305.807L71.2511 319.306L68.7437 319.306Z" fill="#C9D137"/>
<path d="M92.3131 362.399L100.337 362.399L126.414 335.401L126.414 331.247L133.434 323.978L129.422 323.978L92.3131 362.399Z" fill="#C9D137"/>
<path d="M142.962 355.649L142.962 352.534L155.499 339.554L158.508 339.554L158.508 342.15L145.47 355.649L142.962 355.649Z" fill="#C9D137"/>
<path d="M86.7968 178.084L86.7968 174.969L74.7614 162.508L71.7525 162.508L71.7525 165.624L83.788 178.084L86.7968 178.084Z" fill="#C9D137"/>
<path d="M-14 109.55L16.5901 109.55L24.6137 101.243L24.6137 80.4754L48.1831 56.0732L92.3131 56.0732L92.3131 30.1134L108.862 12.9799M35.1447 99.6857L35.1447 83.5906L50.189 67.4955L89.8057 67.4955L117.888 96.5705L117.888 131.876L197.122 213.909L197.122 222.216L188.597 222.216L160.012 251.81L152.49 251.81L114.378 212.351L114.378 178.603L83.788 146.933L66.7378 146.933L35.1447 114.223L35.1447 106.954M35.1447 99.6857L43.1684 99.6857L64.7319 122.011L79.7762 122.011L147.977 192.622M35.1447 99.6857L35.1447 106.954M147.977 192.622L156.502 183.795L162.52 183.795L162.52 190.026L136.443 217.024L130.425 217.024L130.425 210.794C130.425 210.794 133.317 207.757 136.945 203.98M147.977 192.622C145.035 195.581 140.614 200.159 136.945 203.98M136.945 203.98L132.494 199.371L132.494 183.795L79.337 128.761L61.2215 128.761L40.1595 106.954L35.1447 106.954M47.6816 88.2634L53.6994 88.2634M47.6816 91.3785L53.6994 91.3785M56.7082 91.3785L59.7171 91.3785M56.7082 88.2633L59.7171 88.2633M62.7259 88.2633L65.7348 88.2633M62.7259 91.3785L65.7348 91.3785M130.425 24.4022L130.425 21.8062L121.399 12.4607L118.39 12.4607M118.39 12.4607C118.39 14.0183 117.387 15.5759 115.882 15.5759C114.378 15.5759 113.375 14.0183 113.375 12.4607C113.375 10.9031 114.378 9.34552 115.882 9.34552C117.387 9.34552 118.39 10.9031 118.39 12.4607ZM102.343 45.6893L102.343 68.5339L127.918 95.0129L127.918 129.28L177.063 180.161L177.063 150.048L159.511 131.876L159.511 124.607M102.343 45.6893L102.343 36.3437L110.868 27.5174L117.888 27.5174L159.511 70.6107L159.511 115.262M102.343 45.6893L108.36 39.4589L118.39 39.4589L153.493 75.8026L153.493 109.031L159.511 115.262M159.511 115.262L159.511 124.607M159.511 124.607L163.523 124.607L176.561 138.106L184.585 138.106L193.11 129.28L193.11 33.7477L160.514 -1.52565e-05L153.493 -1.46427e-05M-14 117.858L27.6226 117.858L64.2304 155.759L77.2688 155.759L108.36 187.949L108.36 216.505L150.986 260.636L150.986 269.982L143.965 277.251L116.384 277.251L70.7496 324.498L-14 324.498L-14 275.174L44.6728 214.428L45.1743 213.909L60.2186 213.909L88.3013 184.834L95.8234 184.834L100.838 190.026L100.838 218.062L145.971 264.79M-14 200.41L-2.46602 188.468L-2.46602 182.238L37.6521 140.702L42.6669 140.702L42.6669 146.933L-14 205.602M-14 215.986L-2.46602 204.044L-2.46602 197.814L37.6521 156.278L42.1654 156.278L42.1654 163.028L-14 221.178M-14 231.562L-2.46602 219.62L-2.46602 213.39L37.6521 171.854L42.1654 171.854L42.1654 178.603L-14 236.753M-14 247.137L-2.46602 235.196L-2.46602 228.966L37.6521 187.43L42.1654 187.43L42.1654 194.179L-14 252.329M-14 262.713L-2.46601 250.772L-2.46601 244.541L37.6521 203.006L42.1654 203.006L42.1654 209.755L-14 267.905M31.6344 250.253L38.6551 250.253M40.661 250.253L44.6728 250.253M46.6787 250.253L49.6876 250.253M46.6787 253.368L49.6876 253.368M44.6728 253.368L40.661 253.368M38.6551 253.368L31.6344 253.368M34.6433 276.212L2.04728 276.212L2.04728 273.097L6.05909 268.944L12.0768 268.944L16.0886 264.79L16.0886 258.56L49.1861 224.293L70.2481 224.293M34.6433 276.212L41.1625 276.212L79.2747 236.753L79.2747 229.485L74.2599 224.293L70.2481 224.293M34.6433 276.212L63.7289 246.099L63.7289 236.234L70.2481 229.485L70.2481 224.293M-2.96749 283.481L44.1713 283.481L93.316 232.6M93.316 232.6L93.316 230.523L95.3219 230.523L95.3219 232.6L93.316 232.6ZM93.316 240.388L44.6728 290.75L-2.96749 290.75M93.316 240.388L93.316 238.83L95.3219 238.83L95.3219 240.907L93.316 240.907L93.316 240.388ZM-2.96749 298.538L44.6728 298.538L93.316 248.176M93.316 248.176L93.316 246.099L95.3219 246.099L95.3219 248.176L93.316 248.176ZM93.316 255.445L44.1713 306.326L-2.96749 306.326M93.316 255.445L93.316 253.368L95.3219 253.368L95.3219 255.445L93.316 255.445ZM93.316 262.713L44.1713 313.595L-2.96749 313.595M93.316 262.713L93.316 260.636L95.3219 260.636L95.3219 262.713L93.316 262.713ZM-3.97043 369.149L5.55762 369.149L36.1477 337.478L41.1625 337.478M0.0413804 373.821L9.06796 373.821L40.1595 341.631L45.1743 341.631M4.05319 377.975L13.0798 377.975L44.1713 345.785L49.6876 345.785M8.06501 382.128L17.5931 382.128L48.6846 349.938L53.6994 349.938M57.7112 355.13L52.195 355.13L21.6049 386.801L13.0798 386.801M17.5931 391.474L26.1182 391.474L57.2097 359.284L62.2245 359.284M66.2363 363.437L61.2215 363.437L30.13 395.628L21.1034 395.628M89.3042 326.574L89.3042 343.708L123.405 308.403L144.968 308.403L190.352 261.415M89.3042 326.574L89.3042 315.671L119.393 284.52L145.47 284.52L156.001 273.616L156.001 265.309L190.101 230.004L197.122 230.004L208.656 241.945L208.656 257.521L194.113 257.521L190.352 261.415M89.3042 326.574L125.912 288.673L150.484 288.673L183.582 254.406L190.352 261.415M208.656 118.377L208.656 229.485L203.641 224.293L203.641 207.678L185.086 188.468L185.086 151.086L200.131 135.51L200.131 23.3638L208.656 14.5375L208.656 45.6892M66.2363 204.044L66.2363 201.448L57.7112 192.622L54.2008 192.622M54.2008 192.622C54.2008 191.064 53.2982 190.026 51.6935 190.026C50.0887 190.026 49.1861 191.064 49.1861 192.622C49.1861 194.179 50.189 195.218 51.6935 195.218C53.1979 195.218 54.2008 194.179 54.2008 192.622ZM141.959 272.578L141.959 269.982L133.434 261.156L129.924 261.156M129.924 261.156C129.924 259.598 129.021 258.56 127.416 258.56C125.812 258.56 124.909 259.598 124.909 261.156C124.909 262.713 125.912 263.752 127.416 263.752C128.921 263.752 129.924 262.713 129.924 261.156ZM23.1093 69.5723L36.1477 56.0732L38.6551 56.0732L38.6551 58.6692L25.6167 72.1683L23.1093 72.1683L23.1093 69.5723ZM52.1949 35.3053L52.1949 49.8428L54.2008 49.8428L54.2008 43.6125L57.2097 43.6125L57.2097 49.8428L59.2156 49.8428L59.2156 35.3053L57.2097 35.3053L57.2097 41.5357L54.2008 41.5357L54.2008 35.3053L52.1949 35.3053ZM63.2274 38.4205L65.2333 38.4205L65.7348 35.3053L67.7407 35.3053L65.2333 49.8428L62.7259 49.8428L60.72 35.3053L62.7259 35.3053L63.2274 38.4205ZM74.2599 40.4973L74.2599 37.9013C74.2599 37.7283 74.1596 37.3821 73.7584 37.3821C73.3572 37.3821 72.254 37.3821 71.7525 37.3821C71.5854 37.3821 71.251 37.486 71.251 37.9013C71.251 38.3167 71.251 44.3047 71.251 47.2468C71.251 47.4199 71.3513 47.766 71.7525 47.766C72.1537 47.766 72.9226 47.766 73.257 47.766L73.7584 47.766C73.9256 47.766 74.2599 47.6622 74.2599 47.2468C74.2599 46.8315 74.2599 46.3815 74.2599 46.2085C74.2599 46.0354 74.3602 45.6893 74.7614 45.6893C75.1626 45.6893 75.2629 45.6893 75.2629 45.6893C75.43 45.6893 75.7643 45.7931 75.7643 46.2085C75.7643 46.6238 75.7643 47.766 75.7643 48.2852C75.7643 50.362 69.2451 51.4004 69.2451 47.2468C69.2451 46.2085 69.2451 39.9781 69.2451 37.3821C69.2451 34.7861 75.7643 34.7861 75.7643 37.3821C75.7643 38.4205 75.7643 40.6011 75.7643 41.0165C75.7643 41.4318 75.43 41.5357 75.2629 41.5357C75.2629 41.5357 75.1626 41.5357 74.7614 41.5357C74.3602 41.5357 74.2599 40.8434 74.2599 40.4973ZM77.7702 49.8428L79.7761 49.8428L79.7761 45.1701L82.785 49.8428L84.2894 49.8428L84.2894 48.2852L81.2806 43.6125L81.2806 42.5741L84.2894 36.8629L84.2894 35.3053L82.785 35.3053L79.7761 41.0165L79.7761 35.3053L77.7702 35.3053L77.7702 49.8428ZM46.6787 81.5138L79.7762 81.5138L81.2806 79.9562L84.7909 79.9562L103.346 99.1665L103.346 134.991L108.36 140.183L113.375 140.183L119.393 146.413L124.408 146.413L124.408 145.375L113.375 133.953L113.375 99.1665L87.7998 72.6875L52.1949 72.6875L46.6787 78.3986L46.6787 81.5138ZM135.44 67.4955L148.478 80.9946L151.487 80.9946L151.487 77.8794L138.449 64.3803L135.44 64.3803L135.44 67.4955ZM137.947 219.62L137.947 226.37L143.464 226.37L170.042 198.852L170.042 192.622L164.024 192.622L137.947 219.62ZM144.968 230.004L144.968 235.196L149.983 235.196L176.561 207.678L176.561 202.487L171.546 202.487L144.968 230.004ZM151.989 239.349L151.989 245.061L157.505 245.061L184.585 217.024L184.585 210.794L179.57 210.794L151.989 239.349ZM68.7437 319.306L68.7437 316.19L81.2806 303.211L84.2895 303.211L84.2895 305.807L71.2511 319.306L68.7437 319.306ZM50.1891 436.125L50.1891 412.242L84.7909 376.417L84.7909 363.957L127.416 319.825L145.47 319.825L197.122 266.348L208.656 266.348L208.656 285.039L200.632 293.346L193.11 293.346L138.449 349.938L138.449 362.399L106.856 395.108L89.8057 395.108L50.1891 436.125ZM92.3131 362.399L100.337 362.399L126.414 335.401L126.414 331.247L133.434 323.978L129.422 323.978L92.3131 362.399ZM142.962 355.649L142.962 352.534L155.499 339.554L158.508 339.554L158.508 342.15L145.47 355.649L142.962 355.649ZM86.7968 178.084L86.7968 174.969L74.7614 162.508L71.7525 162.508L71.7525 165.624L83.788 178.084L86.7968 178.084Z" stroke="#C9D137"/>
<path d="M46.6787 797.486L79.7761 797.486L81.2806 799.044L84.7909 799.044L103.346 779.833L103.346 744.009L108.36 738.817L113.375 738.817L119.393 732.586L124.408 732.586L124.408 733.625L113.375 745.047L113.375 779.833L87.7998 806.312L52.1949 806.312L46.6787 800.601L46.6787 797.486Z" fill="#C9D137"/>
<path d="M23.1093 809.427L36.1477 822.927L38.655 822.927L38.655 820.331L25.6167 806.831L23.1093 806.831L23.1093 809.427Z" fill="#C9D137"/>
<path d="M135.44 811.504L148.478 798.005L151.487 798.005L151.487 801.12L138.449 814.619L135.44 814.619L135.44 811.504Z" fill="#C9D137"/>
<path d="M68.7436 559.694L68.7436 562.809L81.2805 575.789L84.2894 575.789L84.2894 573.193L71.251 559.694L68.7436 559.694Z" fill="#C9D137"/>
<path d="M92.313 516.601L100.337 516.601L126.413 543.599L126.413 547.753L133.434 555.021L129.422 555.021L92.313 516.601Z" fill="#C9D137"/>
<path d="M142.962 523.35L142.962 526.466L155.499 539.445L158.508 539.445L158.508 536.849L145.47 523.35L142.962 523.35Z" fill="#C9D137"/>
<path d="M86.7968 700.915L86.7968 704.031L74.7614 716.491L71.7525 716.491L71.7525 713.376L83.7879 700.915L86.7968 700.915Z" fill="#C9D137"/>
<path d="M-14 769.449L16.5901 769.449L24.6137 777.756L24.6137 798.524L48.1831 822.927L92.3131 822.927L92.3131 848.886L108.862 866.02M35.1447 779.314L35.1447 795.409L50.189 811.504L89.8057 811.504L117.888 782.429L117.888 747.124L197.122 665.091L197.122 656.784L188.597 656.784L160.012 627.19L152.49 627.19L114.378 666.648L114.378 700.396L83.7879 732.067L66.7377 732.067L35.1447 764.777L35.1447 772.045M35.1447 779.314L43.1683 779.314L64.7318 756.989L79.7761 756.989L147.977 686.378M35.1447 779.314L35.1447 772.045M147.977 686.378L156.502 695.204L162.52 695.204L162.52 688.974L136.443 661.976L130.425 661.976L130.425 668.206C130.425 668.206 133.317 671.243 136.944 675.02M147.977 686.378C145.035 683.419 140.614 678.841 136.944 675.02M136.944 675.02L132.493 679.628L132.493 695.204L79.337 750.239L61.2215 750.239L40.1595 772.045L35.1447 772.045M47.6816 790.736L53.6993 790.736M47.6816 787.621L53.6993 787.621M56.7082 787.621L59.7171 787.621M56.7082 790.736L59.7171 790.736M62.7259 790.736L65.7348 790.736M62.7259 787.621L65.7348 787.621M130.425 854.598L130.425 857.194L121.399 866.539L118.39 866.539M118.39 866.539C118.39 864.981 117.387 863.424 115.882 863.424C114.378 863.424 113.375 864.981 113.375 866.539C113.375 868.097 114.378 869.654 115.882 869.654C117.387 869.654 118.39 868.097 118.39 866.539ZM102.343 833.31L102.343 810.466L127.918 783.987L127.918 749.72L177.063 698.839L177.063 728.952L159.511 747.124L159.511 754.393M102.343 833.31L102.343 842.656L110.868 851.482L117.888 851.482L159.511 808.389L159.511 763.738M102.343 833.31L108.36 839.541L118.39 839.541L153.493 803.197L153.493 769.969L159.511 763.738M159.511 763.738L159.511 754.393M159.511 754.393L163.523 754.393L176.561 740.894L184.585 740.894L193.11 749.72L193.11 845.252L160.514 879L153.493 879M-14 761.142L27.6226 761.142L64.2304 723.241L77.2687 723.241L108.36 691.051L108.36 662.495L150.986 618.363L150.986 609.018L143.965 601.749L116.384 601.749L70.7495 554.502L-14 554.502L-14 603.826L44.6728 664.572L45.1742 665.091L60.2185 665.091L88.3012 694.166L95.8234 694.166L100.838 688.974L100.838 660.937L145.971 614.21M-14 678.59L-2.46605 690.532L-2.46605 696.762L37.6521 738.298L42.6669 738.298L42.6669 732.067L-14 673.398M-14 663.014L-2.46605 674.956L-2.46605 681.186L37.6521 722.722L42.1654 722.722L42.1654 715.972L-14 657.822M-14 647.438L-2.46605 659.38L-2.46605 665.61L37.6521 707.146L42.1654 707.146L42.1654 700.396L-14 642.246M-14 631.862L-2.46606 643.804L-2.46606 650.034L37.6521 691.57L42.1654 691.57L42.1654 684.82L-14 626.67M-14 616.286L-2.46606 628.228L-2.46606 634.458L37.6521 675.994L42.1654 675.994L42.1654 669.244L-14 611.095M31.6344 628.747L38.655 628.747M40.6609 628.747L44.6728 628.747M46.6787 628.747L49.6875 628.747M46.6787 625.632L49.6875 625.632M44.6728 625.632L40.6609 625.632M38.655 625.632L31.6344 625.632M34.6432 602.787L2.04723 602.787L2.04723 605.903L6.05904 610.056L12.0768 610.056L16.0886 614.21L16.0886 620.44L49.186 654.707L70.2481 654.707M34.6432 602.787L41.1624 602.787L79.2746 642.246L79.2746 649.515L74.2599 654.707L70.2481 654.707M34.6432 602.787L63.7289 632.901L63.7289 642.765L70.2481 649.515L70.2481 654.707M-2.96754 595.519L44.1713 595.519L93.316 646.4M93.316 646.4L93.316 648.477L95.3219 648.477L95.3219 646.4L93.316 646.4ZM93.316 638.612L44.6727 588.25L-2.96754 588.25M93.316 638.612L93.316 640.169L95.3219 640.169L95.3219 638.093L93.316 638.093L93.316 638.612ZM-2.96754 580.462L44.6727 580.462L93.316 630.824M93.316 630.824L93.316 632.901L95.3219 632.901L95.3219 630.824L93.316 630.824ZM93.316 623.555L44.1713 572.674L-2.96754 572.674M93.316 623.555L93.316 625.632L95.3219 625.632L95.3219 623.555L93.316 623.555ZM93.316 616.286L44.1713 565.405L-2.96754 565.405M93.316 616.286L93.316 618.363L95.3219 618.363L95.3219 616.286L93.316 616.286ZM-3.9705 509.851L5.55756 509.851L36.1476 541.522L41.1624 541.522M0.0413151 505.178L9.0679 505.178L40.1595 537.369L45.1742 537.369M4.05313 501.025L13.0797 501.025L44.1713 533.215L49.6875 533.215M8.06494 496.871L17.593 496.871L48.6846 529.062L53.6993 529.062M57.7111 523.87L52.1949 523.87L21.6048 492.199L13.0797 492.199M17.593 487.526L26.1181 487.526L57.2097 519.716L62.2244 519.716M66.2362 515.562L61.2215 515.562L30.1299 483.372L21.1033 483.372M89.3042 552.425L89.3042 535.292L123.405 570.597L144.968 570.597L190.352 617.584M89.3042 552.425L89.3042 563.328L119.393 594.48L145.47 594.48L156.001 605.383L156.001 613.69L190.101 648.996L197.122 648.996L208.656 637.054L208.656 621.478L194.113 621.478L190.352 617.584M89.3042 552.425L125.912 590.327L150.484 590.327L183.582 624.594L190.352 617.584M208.656 760.623L208.656 649.515L203.641 654.707L203.641 671.321L185.086 690.532L185.086 727.914L200.131 743.49L200.131 855.636L208.656 864.462L208.656 833.31M66.2363 674.956L66.2363 677.552L57.7112 686.378L54.2008 686.378M54.2008 686.378C54.2008 687.936 53.2982 688.974 51.6934 688.974C50.0887 688.974 49.186 687.936 49.186 686.378C49.186 684.82 50.189 683.782 51.6934 683.782C53.1979 683.782 54.2008 684.82 54.2008 686.378ZM141.959 606.422L141.959 609.018L133.434 617.844L129.924 617.844M129.924 617.844C129.924 619.402 129.021 620.44 127.416 620.44C125.812 620.44 124.909 619.402 124.909 617.844C124.909 616.286 125.912 615.248 127.416 615.248C128.921 615.248 129.924 616.286 129.924 617.844ZM23.1093 809.427L36.1477 822.927L38.655 822.927L38.655 820.331L25.6167 806.831L23.1093 806.831L23.1093 809.427ZM52.1949 843.694L52.1949 829.157L54.2008 829.157L54.2008 835.387L57.2097 835.387L57.2097 829.157L59.2156 829.157L59.2156 843.694L57.2097 843.694L57.2097 837.464L54.2008 837.464L54.2008 843.694L52.1949 843.694ZM63.2274 840.579L65.2333 840.579L65.7348 843.694L67.7407 843.694L65.2333 829.157L62.7259 829.157L60.72 843.694L62.7259 843.694L63.2274 840.579ZM74.2599 838.502L74.2599 841.098C74.2599 841.271 74.1596 841.618 73.7584 841.618C73.3572 841.618 72.254 841.618 71.7525 841.618C71.5854 841.618 71.251 841.514 71.251 841.098C71.251 840.683 71.251 834.695 71.251 831.753C71.251 831.58 71.3513 831.234 71.7525 831.234C72.1537 831.234 72.9226 831.234 73.2569 831.234L73.7584 831.234C73.9256 831.234 74.2599 831.338 74.2599 831.753C74.2599 832.168 74.2599 832.618 74.2599 832.791C74.2599 832.964 74.3602 833.31 74.7614 833.31C75.1626 833.31 75.2628 833.31 75.2628 833.31C75.43 833.31 75.7643 833.207 75.7643 832.791C75.7643 832.376 75.7643 831.234 75.7643 830.715C75.7643 828.638 69.2451 827.599 69.2451 831.753C69.2451 832.791 69.2451 839.022 69.2451 841.618C69.2451 844.214 75.7643 844.214 75.7643 841.618C75.7643 840.579 75.7643 838.399 75.7643 837.983C75.7643 837.568 75.43 837.464 75.2628 837.464C75.2628 837.464 75.1626 837.464 74.7614 837.464C74.3602 837.464 74.2599 838.156 74.2599 838.502ZM77.7702 829.157L79.7761 829.157L79.7761 833.83L82.785 829.157L84.2894 829.157L84.2894 830.714L81.2806 835.387L81.2806 836.426L84.2894 842.137L84.2894 843.694L82.785 843.694L79.7761 837.983L79.7761 843.694L77.7702 843.694L77.7702 829.157ZM46.6787 797.486L79.7761 797.486L81.2806 799.044L84.7909 799.044L103.346 779.833L103.346 744.009L108.36 738.817L113.375 738.817L119.393 732.586L124.408 732.586L124.408 733.625L113.375 745.047L113.375 779.833L87.7998 806.312L52.1949 806.312L46.6787 800.601L46.6787 797.486ZM135.44 811.504L148.478 798.005L151.487 798.005L151.487 801.12L138.449 814.619L135.44 814.619L135.44 811.504ZM137.947 659.38L137.947 652.63L143.464 652.63L170.042 680.148L170.042 686.378L164.024 686.378L137.947 659.38ZM144.968 648.996L144.968 643.804L149.983 643.804L176.561 671.321L176.561 676.513L171.546 676.513L144.968 648.996ZM151.989 639.65L151.989 633.939L157.505 633.939L184.585 661.976L184.585 668.206L179.57 668.206L151.989 639.65ZM68.7436 559.694L68.7436 562.809L81.2805 575.789L84.2894 575.789L84.2894 573.193L71.251 559.694L68.7436 559.694ZM50.189 442.875L50.189 466.758L84.7909 502.582L84.7909 515.043L127.416 559.175L145.47 559.175L197.122 612.652L208.656 612.652L208.656 593.961L200.632 585.654L193.11 585.654L138.449 529.061L138.449 516.601L106.856 483.891L89.8056 483.891L50.189 442.875ZM92.313 516.601L100.337 516.601L126.413 543.599L126.413 547.753L133.434 555.021L129.422 555.021L92.313 516.601ZM142.962 523.35L142.962 526.466L155.499 539.445L158.508 539.445L158.508 536.849L145.47 523.35L142.962 523.35ZM86.7968 700.915L86.7968 704.031L74.7614 716.491L71.7525 716.491L71.7525 713.376L83.7879 700.915L86.7968 700.915Z" stroke="#C9D137"/>
<path d="M383.671 797.486L350.574 797.486L349.069 799.044L345.559 799.044L327.004 779.834L327.004 744.009L321.989 738.817L316.975 738.817L310.957 732.587L305.942 732.587L305.942 733.625L316.975 745.048L316.975 779.834L342.55 806.313L378.155 806.313L383.671 800.602L383.671 797.486Z" fill="#C9D137"/>
<path d="M407.241 809.428L394.202 822.927L391.695 822.927L391.695 820.331L404.733 806.832L407.241 806.832L407.241 809.428Z" fill="#C9D137"/>
<path d="M294.91 811.505L281.871 798.006L278.862 798.006L278.862 801.121L291.901 814.62L294.91 814.62L294.91 811.505Z" fill="#C9D137"/>
<path d="M361.606 559.695L361.606 562.81L349.069 575.79L346.06 575.79L346.06 573.194L359.099 559.695L361.606 559.695Z" fill="#C9D137"/>
<path d="M338.037 516.601L330.013 516.601L303.936 543.6L303.936 547.753L296.916 555.022L300.927 555.022L338.037 516.601Z" fill="#C9D137"/>
<path d="M287.388 523.351L287.388 526.466L274.851 539.446L271.842 539.446L271.842 536.85L284.88 523.351L287.388 523.351Z" fill="#C9D137"/>
<path d="M343.553 700.916L343.553 704.031L355.588 716.492L358.597 716.492L358.597 713.377L346.562 700.916L343.553 700.916Z" fill="#C9D137"/>
<path d="M444.35 769.45L413.76 769.45L405.736 777.757L405.736 798.525L382.167 822.927L338.037 822.927L338.037 848.887L321.488 866.02M395.205 779.315L395.205 795.41L380.161 811.505L340.544 811.505L312.461 782.43L312.461 747.124L233.228 665.091L233.228 656.784L241.753 656.784L270.337 627.19L277.86 627.19L315.972 666.649L315.972 700.397L346.562 732.068L363.612 732.068L395.205 764.777L395.205 772.046M395.205 779.315L387.181 779.315L365.618 756.989L350.574 756.989L282.373 686.378M395.205 779.315L395.205 772.046M282.373 686.378L273.848 695.205L267.83 695.205L267.83 688.974L293.907 661.976L299.924 661.976L299.924 668.207C299.924 668.207 297.033 671.243 293.405 675.021M282.373 686.378C285.315 683.42 289.736 678.841 293.405 675.021M293.405 675.021L297.856 679.629L297.856 695.205L351.013 750.24L369.128 750.24L390.19 772.046L395.205 772.046M382.668 790.737L376.65 790.737M382.668 787.622L376.65 787.622M373.642 787.622L370.633 787.622M373.642 790.737L370.633 790.737M367.624 790.737L364.615 790.737M367.624 787.622L364.615 787.622M299.924 854.598L299.924 857.194L308.951 866.54L311.96 866.54M311.96 866.54C311.96 864.982 312.963 863.424 314.467 863.424C315.972 863.424 316.975 864.982 316.975 866.54C316.975 868.097 315.972 869.655 314.467 869.655C312.963 869.655 311.96 868.097 311.96 866.54ZM328.007 833.311L328.007 810.466L302.432 783.987L302.432 749.72L253.287 698.839L253.287 728.953L270.839 747.124L270.839 754.393M328.007 833.311L328.007 842.657L319.482 851.483L312.461 851.483L270.839 808.39L270.839 763.739M328.007 833.311L321.989 839.541L311.96 839.541L276.857 803.198L276.857 769.969L270.839 763.739M270.839 763.739L270.839 754.393M270.839 754.393L266.827 754.393L253.789 740.894L245.765 740.894L237.24 749.72L237.24 845.253L269.836 879L276.857 879M444.35 761.143L402.727 761.143L366.119 723.241L353.081 723.241L321.989 691.051L321.989 662.495L279.364 618.364L279.364 609.018L286.385 601.749L313.966 601.749L359.6 554.503L444.35 554.503L444.35 603.826L385.677 664.572L385.176 665.091L370.131 665.091L342.049 694.166L334.526 694.166L329.512 688.974L329.512 660.938L284.379 614.21M444.35 678.591L432.816 690.532L432.816 696.762L392.698 738.298L387.683 738.298L387.683 732.068L444.35 673.399M444.35 663.015L432.816 674.956L432.816 681.186L392.698 722.722L388.184 722.722L388.184 715.973L444.35 657.823M444.35 647.439L432.816 659.38L432.816 665.611L392.698 707.146L388.184 707.146L388.184 700.397L444.35 642.247M444.35 631.863L432.816 643.804L432.816 650.035L392.698 691.57L388.184 691.57L388.184 684.821L444.35 626.671M444.35 616.287L432.816 628.228L432.816 634.459L392.698 675.995L388.184 675.995L388.184 669.245L444.35 611.095M398.715 628.748L391.695 628.748M389.689 628.748L385.677 628.748M383.671 628.748L380.662 628.748M383.671 625.632L380.662 625.632M385.677 625.632L389.689 625.632M391.695 625.632L398.715 625.632M395.707 602.788L428.303 602.788L428.303 605.903L424.291 610.057L418.273 610.057L414.261 614.21L414.261 620.441L381.164 654.707L360.102 654.707M395.707 602.788L389.187 602.788L351.075 642.247L351.075 649.516L356.09 654.707L360.102 654.707M395.707 602.788L366.621 632.901L366.621 642.766L360.102 649.516L360.102 654.707M433.317 595.519L386.178 595.519L337.034 646.4M337.034 646.4L337.034 648.477L335.028 648.477L335.028 646.4L337.034 646.4ZM337.034 638.612L385.677 588.25L433.317 588.25M337.034 638.612L337.034 640.17L335.028 640.17L335.028 638.093L337.034 638.093L337.034 638.612ZM433.317 580.462L385.677 580.462L337.034 630.824M337.034 630.824L337.034 632.901L335.028 632.901L335.028 630.824L337.034 630.824ZM337.034 623.556L386.178 572.674L433.317 572.674M337.034 623.556L337.034 625.633L335.028 625.633L335.028 623.556L337.034 623.556ZM337.034 616.287L386.178 565.406L433.317 565.406M337.034 616.287L337.034 618.364L335.028 618.364L335.028 616.287L337.034 616.287ZM434.32 509.852L424.792 509.852L394.202 541.523L389.187 541.523M430.308 505.179L421.282 505.179L390.19 537.369L385.176 537.369M426.297 501.025L417.27 501.025L386.178 533.216L380.662 533.216M422.285 496.872L412.757 496.872L381.665 529.062L376.65 529.062M372.639 523.87L378.155 523.87L408.745 492.199L417.27 492.199M412.757 487.526L404.232 487.526L373.14 519.716L368.125 519.716M364.113 515.563L369.128 515.563L400.22 483.373L409.246 483.373M341.046 552.426L341.046 535.292L306.945 570.598L285.382 570.598L239.998 617.585M341.046 552.426L341.046 563.329L310.957 594.481L284.88 594.481L274.349 605.384L274.349 613.691L240.249 648.996L233.228 648.996L221.694 637.055L221.694 621.479L236.237 621.479L239.998 617.585M341.046 552.426L304.438 590.327L279.865 590.327L246.768 624.594L239.998 617.585M221.694 760.624L221.694 649.516L226.709 654.707L226.709 671.322L245.264 690.532L245.264 727.914L230.219 743.49L230.219 855.636L221.694 864.463L221.694 833.311M364.114 674.956L364.114 677.552L372.639 686.378L376.149 686.378M376.149 686.378C376.149 687.936 377.052 688.974 378.656 688.974C380.261 688.974 381.164 687.936 381.164 686.378C381.164 684.821 380.161 683.782 378.656 683.782C377.152 683.782 376.149 684.821 376.149 686.378ZM288.391 606.422L288.391 609.018L296.916 617.845L300.426 617.845M300.426 617.845C300.426 619.402 301.329 620.441 302.933 620.441C304.538 620.441 305.441 619.402 305.441 617.845C305.441 616.287 304.438 615.249 302.933 615.249C301.429 615.249 300.426 616.287 300.426 617.845ZM407.241 809.428L394.202 822.927L391.695 822.927L391.695 820.331L404.733 806.832L407.241 806.832L407.241 809.428ZM378.155 843.695L378.155 829.157L376.149 829.157L376.149 835.388L373.14 835.388L373.14 829.157L371.134 829.157L371.134 843.695L373.14 843.695L373.14 837.465L376.149 837.465L376.149 843.695L378.155 843.695ZM367.122 840.58L365.116 840.58L364.615 843.695L362.609 843.695L365.116 829.157L367.624 829.157L369.63 843.695L367.624 843.695L367.122 840.58ZM356.09 838.503L356.09 841.099C356.09 841.272 356.19 841.618 356.591 841.618C356.993 841.618 358.096 841.618 358.597 841.618C358.764 841.618 359.099 841.514 359.099 841.099C359.099 840.684 359.099 834.696 359.099 831.753C359.099 831.58 358.998 831.234 358.597 831.234C358.196 831.234 357.427 831.234 357.093 831.234L356.591 831.234C356.424 831.234 356.09 831.338 356.09 831.753C356.09 832.169 356.09 832.619 356.09 832.792C356.09 832.965 355.99 833.311 355.588 833.311C355.187 833.311 355.087 833.311 355.087 833.311C354.92 833.311 354.585 833.207 354.585 832.792C354.585 832.376 354.585 831.234 354.585 830.715C354.585 828.638 361.105 827.6 361.105 831.753C361.105 832.792 361.105 839.022 361.105 841.618C361.105 844.214 354.585 844.214 354.585 841.618C354.585 840.58 354.585 838.399 354.585 837.984C354.585 837.568 354.92 837.465 355.087 837.465C355.087 837.465 355.187 837.465 355.588 837.465C355.99 837.465 356.09 838.157 356.09 838.503ZM352.58 829.157L350.574 829.157L350.574 833.83L347.565 829.157L346.06 829.157L346.06 830.715L349.069 835.388L349.069 836.426L346.06 842.137L346.06 843.695L347.565 843.695L350.574 837.984L350.574 843.695L352.58 843.695L352.58 829.157ZM383.671 797.486L350.574 797.486L349.069 799.044L345.559 799.044L327.004 779.834L327.004 744.009L321.989 738.817L316.975 738.817L310.957 732.587L305.942 732.587L305.942 733.625L316.975 745.048L316.975 779.834L342.55 806.313L378.155 806.313L383.671 800.602L383.671 797.486ZM294.91 811.505L281.871 798.006L278.862 798.006L278.862 801.121L291.901 814.62L294.91 814.62L294.91 811.505ZM292.402 659.38L292.402 652.631L286.886 652.631L260.308 680.148L260.308 686.378L266.326 686.378L292.402 659.38ZM285.382 648.996L285.382 643.804L280.367 643.804L253.789 671.322L253.789 676.514L258.803 676.514L285.382 648.996ZM278.361 639.651L278.361 633.94L272.845 633.94L245.765 661.976L245.765 668.207L250.78 668.207L278.361 639.651ZM361.606 559.695L361.606 562.81L349.069 575.79L346.06 575.79L346.06 573.194L359.099 559.695L361.606 559.695ZM380.161 442.875L380.161 466.758L345.559 502.583L345.559 515.044L302.933 559.175L284.88 559.175L233.228 612.653L221.694 612.653L221.694 593.962L229.718 585.654L237.24 585.654L291.901 529.062L291.901 516.601L323.494 483.892L340.544 483.892L380.161 442.875ZM338.037 516.601L330.013 516.601L303.936 543.6L303.936 547.753L296.916 555.022L300.927 555.022L338.037 516.601ZM287.388 523.351L287.388 526.466L274.851 539.446L271.842 539.446L271.842 536.85L284.88 523.351L287.388 523.351ZM343.553 700.916L343.553 704.031L355.588 716.492L358.597 716.492L358.597 713.377L346.562 700.916L343.553 700.916Z" stroke="#C9D137"/>
</g>
<path d="M359.5 130.955L347.82 119.275L337.965 109.42L329.045 100.5L58.5356 100.5L58.5369 750.16L77.7067 769.33L96.8765 788.5L359.5 788.5L359.5 130.955Z" fill="#1B1F3B" stroke="#C9D137"/>
<path d="M369.5 120.955L357.82 109.275L347.965 99.42L339.045 90.4997L68.5356 90.4997L68.5369 740.16L87.7067 759.33L106.876 778.5L369.5 778.5L369.5 120.955Z" fill="#1B1F3B" stroke="#C9D137"/>
<defs>
<clipPath id="clip0_170_152">
<rect width="430" height="879" fill="white" transform="matrix(-1 8.74228e-08 8.74228e-08 1 430 0)"/>
</clipPath>
</defs>
</svg>
