<svg width="420" height="566" viewBox="0 0 420 566" fill="none" xmlns="http://www.w3.org/2000/svg">
<path opacity="0.2" d="M280.879 284.989L293.287 268.345L293.287 148.271L227.999 56.9938L227.999 0.988418M271.086 0.988318L287.969 23.4412L287.969 98.3391L309.241 126.871L309.241 155.404M305.695 0.98839L305.695 44.8406L280.879 78.1286L280.879 180.37M318.104 0.988419L318.104 23.4412L389.895 119.738L389.895 155.404M326.967 0.988418L326.967 72.1843L370.396 130.438L370.396 198.203M345.579 0.988419L345.579 34.1409M367.086 0.988419L373.941 10.3638L373.941 61.4846L349.124 94.7725L349.124 208.902L333.171 230.302L333.171 295.988M336.716 103.094L336.716 185.125L316.331 212.469L316.331 335.988M387.236 0.988419L387.236 47.2183M397.872 0.988418L397.872 88.8282L419.143 117.361L419.143 157.782M414.711 0.988418L414.711 36.5186L378.373 85.2617L378.373 167.292L389.008 181.559L389.008 239.813" stroke="url(#paint0_linear_8_80)"/>
<path opacity="0.2" d="M134.832 279.988L122.424 263.345L122.424 143.27L186.624 56.8415L186.624 0.987579M140.086 0.987579L127.742 18.4406L127.742 93.3384L106.47 121.871L106.47 150.403M110.015 0.987579L110.015 39.84L134.832 73.1279L134.832 175.369M97.6071 0.987579L97.6071 18.4406L25.8161 114.738L25.8161 150.403M88.744 0.987579L88.744 67.1836L45.3149 125.437L45.3149 193.202M70.1315 0.987579L70.1315 29.1403M45.5864 0.987551L41.7697 5.36319L41.7697 56.4839L66.5863 89.7718L66.5863 203.902L82.5399 225.301L82.5399 292.488M78.9946 98.0938L78.9946 180.125L99.3798 207.468L99.3798 340.988M28.475 0.987558L28.475 42.2177M17.8393 0.987579L17.8393 83.8275L1.08644 106.987M26.7024 234.812L26.7024 176.558L37.3381 162.292L37.3381 80.261L0.999404 31.518L0.999404 0.987579" stroke="url(#paint1_linear_8_80)"/>
<path d="M137.229 303.5V241C133.729 251.5 126.329 279.4 124.729 307L137.229 303.5Z" fill="#1B1F3B"/>
<path d="M124.729 312.5L137.229 309C139.414 368.621 133.825 404.106 128.729 421.014C127.665 420.307 126.286 419.52 124.729 418.701V312.5Z" fill="#1B1F3B"/>
<path d="M143.729 384.5C139.729 397 134.553 415.5 131.729 439.5C129.847 455.5 131.729 464.038 164.729 472.5C184.229 477.5 224.129 478.9 255.729 472.5C267.563 471.5 290.629 464 288.229 440C286.879 426.5 280.329 397 276.729 383C276.563 380.833 274.914 376.101 269.729 376.5C256.729 377.5 169.729 378 157.729 376.5C145.326 374.95 145.009 380.5 143.729 384.5Z" fill="#1B1F3B"/>
<path d="M295.229 312.5V418.412C293.829 419.365 292.58 420.396 291.579 421.5C282.685 392.066 282.19 336.029 283.229 309L295.229 312.5Z" fill="#1B1F3B"/>
<path d="M295.229 307C293.396 289.667 288.429 252.2 283.229 241V303.5L295.229 307Z" fill="#1B1F3B"/>
<path d="M152.229 235C173.729 226.667 226.729 215 266.729 235C269.729 228.333 275.429 210.7 274.229 193.5C273.396 190.833 274.229 186 269.229 183.5L269.194 183.482C265.936 181.853 210.494 154.114 149.729 183.5C147.896 184.167 144.229 187.1 144.229 193.5C144.229 201.5 144.229 210.5 152.229 235Z" fill="#1B1F3B"/>
<path d="M132.729 180C137.896 170.667 151.229 148.7 163.229 135.5C151.563 139.167 129.129 153.2 132.729 180Z" fill="#1B1F3B"/>
<path d="M259.229 135.5C266.563 145.167 282.829 167.6 289.229 180C292.229 170.667 290.429 148.7 259.229 135.5Z" fill="#1B1F3B"/>
<path d="M124.729 509.5C135.896 519.667 160.429 543.5 169.229 557.5C156.896 556.5 130.729 545.5 124.729 509.5Z" fill="#1B1F3B"/>
<path d="M295.229 509.5C283.729 519.667 258.729 543.6 250.729 558C263.729 555.167 290.829 541.5 295.229 509.5Z" fill="#1B1F3B"/>
<path d="M248.729 126C248.348 129.5 253.215 144.4 275.729 176C243.729 162 179.229 160.5 144.229 176C154.063 161.333 173.329 130.8 171.729 126H248.729Z" fill="#1B1F3B"/>
<path fill-rule="evenodd" clip-rule="evenodd" d="M250.729 562C234.229 566.5 181.729 566.056 165.729 562C132.729 552 119.229 521 119.229 502L118.308 430.976C120.625 431.479 122.919 431.381 124.729 431C125.901 429.06 127.295 425.773 128.729 421.014C133.825 404.106 139.414 368.621 137.229 309L124.729 312.5V418.701C122.719 417.644 120.413 416.533 118.107 415.474L115.229 193.5C115.229 149.5 148.729 126 163.229 126H171.729C173.329 130.8 154.063 161.333 144.229 176C179.229 160.5 243.729 162 275.729 176C253.215 144.4 248.348 129.5 248.729 126H259.229C268.229 126 304.229 145.5 304.229 193.5L300.633 415.381C298.73 416.278 296.875 417.291 295.229 418.412V312.5L283.229 309C282.19 336.029 282.685 392.066 291.579 421.5C292.666 425.098 293.879 428.299 295.229 431C296.67 431.329 298.473 431.447 300.378 431.148L299.229 502C298.563 519.833 286.967 552.117 250.729 562ZM124.729 509.5C135.896 519.667 160.429 543.5 169.229 557.5C156.896 556.5 130.729 545.5 124.729 509.5ZM295.229 509.5C283.729 519.667 258.729 543.6 250.729 558C263.729 555.167 290.829 541.5 295.229 509.5ZM288.229 468.5C241.729 489.5 157.729 485 131.729 468.5C129.729 482.1 128.896 496.5 128.729 502C145.729 525 176.729 562.624 210.729 562C244.729 561.376 275.729 520.5 291.729 502C290.701 482.4 288.968 471.5 288.229 468.5ZM131.729 439.5C134.553 415.5 139.729 397 143.729 384.5C145.009 380.5 145.326 374.95 157.729 376.5C169.729 378 256.729 377.5 269.729 376.5C274.914 376.101 276.563 380.833 276.729 383C280.329 397 286.879 426.5 288.229 440C290.629 464 267.563 471.5 255.729 472.5C224.129 478.9 184.229 477.5 164.729 472.5C131.729 464.038 129.847 455.5 131.729 439.5ZM137.229 241V303.5L124.729 307C126.329 279.4 133.729 251.5 137.229 241ZM283.229 241C288.429 252.2 293.396 289.667 295.229 307L283.229 303.5V241ZM266.729 235C226.729 215 173.729 226.667 152.229 235C144.229 210.5 144.229 201.5 144.229 193.5C144.229 187.1 147.896 184.167 149.729 183.5C210.494 154.114 265.936 181.853 269.194 183.482L269.229 183.5C274.229 186 273.396 190.833 274.229 193.5C275.429 210.7 269.729 228.333 266.729 235ZM259.229 135.5C266.563 145.167 282.829 167.6 289.229 180C292.229 170.667 290.429 148.7 259.229 135.5ZM132.729 180C137.896 170.667 151.229 148.7 163.229 135.5C151.563 139.167 129.129 153.2 132.729 180Z" fill="#1B1F3B"/>
<path d="M131.729 468.5C157.729 485 241.729 489.5 288.229 468.5C288.968 471.5 290.701 482.4 291.729 502C275.729 520.5 244.729 561.376 210.729 562C176.729 562.624 145.729 525 128.729 502C128.896 496.5 129.729 482.1 131.729 468.5Z" fill="#1B1F3B"/>
<path d="M128.729 421.014C127.295 425.773 125.901 429.06 124.729 431C122.919 431.381 120.625 431.479 118.308 430.976M128.729 421.014C133.825 404.106 139.414 368.621 137.229 309L124.729 312.5V418.701M128.729 421.014C127.665 420.307 126.286 419.52 124.729 418.701M291.579 421.5C282.685 392.066 282.19 336.029 283.229 309L295.229 312.5V418.412M291.579 421.5C292.666 425.098 293.879 428.299 295.229 431C296.67 431.329 298.473 431.447 300.378 431.148M291.579 421.5C292.58 420.396 293.829 419.365 295.229 418.412M269.229 183.5C274.229 186 273.396 190.833 274.229 193.5C275.429 210.7 269.729 228.333 266.729 235C226.729 215 173.729 226.667 152.229 235C144.229 210.5 144.229 201.5 144.229 193.5C144.229 187.1 147.896 184.167 149.729 183.5C210.494 154.114 265.936 181.853 269.194 183.482M269.229 183.5L269.194 183.482M269.229 183.5C269.218 183.494 269.206 183.489 269.194 183.482M248.729 126H259.229C268.229 126 304.229 145.5 304.229 193.5L300.633 415.381M248.729 126C248.348 129.5 253.215 144.4 275.729 176C243.729 162 179.229 160.5 144.229 176C154.063 161.333 173.329 130.8 171.729 126M248.729 126H171.729M171.729 126H163.229C148.729 126 115.229 149.5 115.229 193.5L118.107 415.474M124.729 418.701C122.719 417.644 120.413 416.533 118.107 415.474M295.229 418.412C296.875 417.291 298.73 416.278 300.633 415.381M300.633 415.381C305.325 413.17 310.316 411.666 313.229 411C312.928 425.457 306.182 430.238 300.378 431.148M300.378 431.148L299.229 502C298.563 519.833 286.967 552.117 250.729 562C234.229 566.5 181.729 566.056 165.729 562C132.729 552 119.229 521 119.229 502L118.308 430.976M118.308 430.976C112.518 429.72 106.586 424.713 107.729 411C110.188 411.988 114.148 413.656 118.107 415.474M124.729 509.5C135.896 519.667 160.429 543.5 169.229 557.5C156.896 556.5 130.729 545.5 124.729 509.5ZM295.229 509.5C283.729 519.667 258.729 543.6 250.729 558C263.729 555.167 290.829 541.5 295.229 509.5ZM131.729 468.5C157.729 485 241.729 489.5 288.229 468.5C288.968 471.5 290.701 482.4 291.729 502C275.729 520.5 244.729 561.376 210.729 562C176.729 562.624 145.729 525 128.729 502C128.896 496.5 129.729 482.1 131.729 468.5ZM143.729 384.5C139.729 397 134.553 415.5 131.729 439.5C129.847 455.5 131.729 464.038 164.729 472.5C184.229 477.5 224.129 478.9 255.729 472.5C267.563 471.5 290.629 464 288.229 440C286.879 426.5 280.329 397 276.729 383C276.563 380.833 274.914 376.101 269.729 376.5C256.729 377.5 169.729 378 157.729 376.5C145.326 374.95 145.009 380.5 143.729 384.5ZM137.229 303.5V241C133.729 251.5 126.329 279.4 124.729 307L137.229 303.5ZM295.229 307C293.396 289.667 288.429 252.2 283.229 241V303.5L295.229 307ZM259.229 135.5C266.563 145.167 282.829 167.6 289.229 180C292.229 170.667 290.429 148.7 259.229 135.5ZM132.729 180C137.896 170.667 151.229 148.7 163.229 135.5C151.563 139.167 129.129 153.2 132.729 180Z" stroke="#C9D137"/>
<defs>
<linearGradient id="paint0_linear_8_80" x1="323.999" y1="0.993807" x2="323.999" y2="335.994" gradientUnits="userSpaceOnUse">
<stop stop-color="#C9D137"/>
<stop offset="1" stop-color="#C9D137" stop-opacity="0"/>
</linearGradient>
<linearGradient id="paint1_linear_8_80" x1="93.9994" y1="0.993804" x2="93.9994" y2="340.994" gradientUnits="userSpaceOnUse">
<stop stop-color="#C9D137"/>
<stop offset="1" stop-color="#C9D137" stop-opacity="0"/>
</linearGradient>
</defs>
</svg>
